<svg xmlns="http://www.w3.org/2000/svg" width="146.286" height="155.829" viewBox="0 0 146.286 155.829">
  <g id="undraw_businessman_re_mlee" transform="translate(0)">
    <path id="Caminho_152" data-name="Caminho 152" d="M380.2,412.814c-10.246,0-22.02-11.37-32.438-5.968-31.542,16.356-27.2-11.013-36.262-21.192l.3-.6a109.032,109.032,0,0,0,36.1,21.094c12.307,4.369,24.707,6.394,35.854,5.86l.019.717Q382,412.814,380.2,412.814Z" transform="translate(-311.496 -323.608)" fill="#d0d4e0"/>
    <path id="Caminho_153" data-name="Caminho 153" d="M667.579,225.686c-8.167,6.186-24.418,4.232-29.462,14.828-15.269,32.082-28.332,7.643-41.7,5l-.123-.655a109.031,109.031,0,0,0,41.515-4.981c12.449-3.948,23.556-9.82,32.12-16.976l.448.56Q669.019,224.6,667.579,225.686Z" transform="translate(-524.089 -202.562)" fill="#d0d4e0"/>
    <ellipse id="Elipse_12" data-name="Elipse 12" cx="2.142" cy="2.872" rx="2.142" ry="2.872" transform="translate(20.56 35.747)" fill="#e6e6e6"/>
    <ellipse id="Elipse_13" data-name="Elipse 13" cx="2.142" cy="2.872" rx="2.142" ry="2.872" transform="translate(110.562 62.62)" fill="#e6e6e6"/>
    <ellipse id="Elipse_14" data-name="Elipse 14" cx="2.142" cy="2.872" rx="2.142" ry="2.872" transform="translate(51.744 0)" fill="#e6e6e6"/>
    <path id="Caminho_154" data-name="Caminho 154" d="M668.106,507.2l-2.49-14.977a1.16,1.16,0,0,1,.953-1.333l11.311-1.881a1.16,1.16,0,0,1,1.333.953l2.49,14.977a1.16,1.16,0,0,1-.953,1.333l-11.311,1.881A1.16,1.16,0,0,1,668.106,507.2Z" transform="translate(-575.825 -401.19)" fill="#3f3d56"/>
    <path id="Caminho_155" data-name="Caminho 155" d="M671.182,505.563l-1.6-9.629a1.087,1.087,0,0,1,.893-1.249l9.721-1.616a1.087,1.087,0,0,1,1.249.893l2.216,13.328a1.087,1.087,0,0,1-.893,1.249l-6.022,1A4.841,4.841,0,0,1,671.182,505.563Z" transform="translate(-578.787 -404.224)" fill="#fff"/>
    <path id="Caminho_156" data-name="Caminho 156" d="M677.553,507.041a1.062,1.062,0,0,1,.872-1.22l6.743-1.121a1.061,1.061,0,0,1,.348,2.093l-6.743,1.121a1.062,1.062,0,0,1-1.22-.872Z" transform="translate(-584.737 -412.907)" fill="#ea4d00"/>
    <path id="Caminho_157" data-name="Caminho 157" d="M679.688,519.881a1.062,1.062,0,0,1,.872-1.22l6.743-1.121a1.061,1.061,0,0,1,.348,2.093l-6.743,1.121a1.062,1.062,0,0,1-1.22-.872Z" transform="translate(-586.331 -422.491)" fill="#ea4d00"/>
    <path id="Caminho_158" data-name="Caminho 158" d="M681.823,532.722a1.062,1.062,0,0,1,.872-1.22l6.743-1.121a1.061,1.061,0,0,1,.348,2.093l-6.743,1.121A1.062,1.062,0,0,1,681.823,532.722Z" transform="translate(-587.925 -432.077)" fill="#ea4d00"/>
    <path id="Caminho_159" data-name="Caminho 159" d="M645.732,436.262a3.034,3.034,0,0,1,.682-4.6l-3.945-18.786,5.229,2.011,3.027,17.948a3.05,3.05,0,0,1-4.994,3.43Z" transform="translate(-558.559 -344.372)" fill="#ffb8b8"/>
    <path id="Caminho_160" data-name="Caminho 160" d="M336.976,547.932h4.3l2.048-16.6h-6.353Z" transform="translate(-251.543 -396.624)" fill="#ffb6b6"/>
    <path id="Caminho_161" data-name="Caminho 161" d="M644.143,728.283h1.212l4.73-1.924,2.535,1.923h0a5.4,5.4,0,0,1,5.4,5.4v.176H644.143Z" transform="translate(-559.809 -578.381)" fill="#2f2e41"/>
    <path id="Caminho_162" data-name="Caminho 162" d="M183.573,530.992l3.852,1.92,9.239-13.945-5.686-2.834Z" transform="translate(-137.033 -385.281)" fill="#ffb6b6"/>
    <path id="Caminho_163" data-name="Caminho 163" d="M486.34,710.524l1.084.54,5.091.388,1.411,2.852h0a5.4,5.4,0,0,1,2.425,7.244l-.078.157-12.422-6.191Z" transform="translate(-440.155 -566.56)" fill="#2f2e41"/>
    <path id="Caminho_164" data-name="Caminho 164" d="M543.743,442.078l-27.368.714.476,13.327s-.476,3.57.476,4.522,1.428.952.952,2.618-1.706,17.583-1.706,17.583S505.34,500.7,505.816,501.178s.952,0,.476,1.19-.952.714-.476,1.19a17.529,17.529,0,0,1,1.19,1.428h7.757s.434-2.38.434-2.618.476-1.666.476-1.9,13.553-14.6,13.553-14.6l2.856-23.8,6.9,23.322s0,20.466.476,20.942.476.238.238,1.19-1.19.714-.476,1.428.952-.476.714.714l-.238,1.19,9.143.1s.952-2.006.476-2.72-.447-.519.133-1.687.819-1.406.581-1.644-.238-1.5-.238-1.5-3.431-46.806-3.431-47.52a2.374,2.374,0,0,1,.2-1.071v-.969l-.912-3.434Z" transform="translate(-456.404 -366.172)" fill="#004158"/>
    <path id="Caminho_165" data-name="Caminho 165" d="M727.45,682.616l.236-5.31a17.148,17.148,0,0,1,8-2.025c-3.842,3.141-3.362,9.2-5.966,13.419a10.315,10.315,0,0,1-7.564,4.767l-3.215,1.968a17.285,17.285,0,0,1,3.643-14.006,16.7,16.7,0,0,1,3.068-2.851C726.421,680.608,727.45,682.616,727.45,682.616Z" transform="translate(-615.44 -540.253)" fill="#d0d4e0"/>
    <path id="Caminho_166" data-name="Caminho 166" d="M260.244,115.052l13.708,27.723-2.682,33.646-17.517-1.6-3.141-55.72Z" transform="translate(-187.076 -85.884)" fill="#025471"/>
    <path id="Caminho_167" data-name="Caminho 167" d="M636.575,332.353l-8.01-.732-.012-.1-5.376-44.509,1.2-3.335a4.884,4.884,0,0,1,3.654-3.125h0a4.863,4.863,0,0,1,5.7,3.89l1.439,7.77,2.041,26.266Z" transform="translate(-544.158 -245.529)" fill="#025471"/>
    <path id="Caminho_168" data-name="Caminho 168" d="M593.763,262.563l1.616-3.865,5,.088,5.214,7.375,5.472,23.013s1.965,16.811,0,17.7-8.627-.208-8.627-.208Z" transform="translate(-522.201 -229.283)" fill="#ea4d00"/>
    <path id="Caminho_169" data-name="Caminho 169" d="M619.857,259.044s10.77,6.226,11.192,9.476,1.832,43.028,1.832,43.028l-3.809-2.461-1.041-14.5-4.648-29.682Z" transform="translate(-541.68 -229.542)" fill="#025471"/>
    <circle id="Elipse_15" data-name="Elipse 15" cx="7.34" cy="7.34" r="7.34" transform="translate(68.294 13.011)" fill="#ffb8b8"/>
    <path id="Caminho_170" data-name="Caminho 170" d="M574.514,185.052a4.04,4.04,0,0,1,3.87-1.886,5.285,5.285,0,0,1,8.856-3.083,1.644,1.644,0,0,1,1.607-.161,3.389,3.389,0,0,1,1.306,1.048,7.606,7.606,0,0,1,1.064,7.738c.183-.666-.484-1.293-1.159-1.442s-1.382-.008-2.066-.105c-.877-.125-1.665-.633-2.543-.748a5.789,5.789,0,0,0-2.2.283,5.965,5.965,0,0,1-2.2.3c-.739-.088-1.691,2.713-1.678,4.686,0,.374-.075.854-.44.933-.45.1-.711-.523-1.139-.693a.792.792,0,0,0-.972.517,1.292,1.292,0,0,0,.247,1.157,3.82,3.82,0,0,0,.925.8l-.176.147a1.049,1.049,0,0,1-1.325.165,2.859,2.859,0,0,1-.951-1.083,12.744,12.744,0,0,1-1.745-4.181A6.089,6.089,0,0,1,574.514,185.052Z" transform="translate(-507.206 -169.524)" fill="#025471"/>
    <path id="Caminho_171" data-name="Caminho 171" d="M512.625,370.49l14.665-15.734a1.644,1.644,0,0,1,2.321-.082l11.882,11.075a1.644,1.644,0,0,1,.082,2.321L526.91,383.8a1.644,1.644,0,0,1-2.321.082L512.707,372.81A1.644,1.644,0,0,1,512.625,370.49Z" transform="translate(-461.305 -300.599)" fill="#e6e6e6"/>
    <path id="Caminho_172" data-name="Caminho 172" d="M529.582,371.737l9.428-10.115a1.539,1.539,0,0,1,2.173-.076l10.212,9.518a1.54,1.54,0,0,1,.076,2.173l-13.05,14a1.54,1.54,0,0,1-2.173.076l-6.326-5.9a6.858,6.858,0,0,1-.34-9.681Z" transform="translate(-472.921 -305.749)" fill="#fff"/>
    <path id="Caminho_173" data-name="Caminho 173" d="M567.136,378.865a1.5,1.5,0,0,1,2.124-.075l7.084,6.6a1.5,1.5,0,0,1-2.049,2.2l-7.084-6.6A1.5,1.5,0,0,1,567.136,378.865Z" transform="translate(-502.024 -318.629)" fill="#e6e6e6"/>
    <path id="Caminho_174" data-name="Caminho 174" d="M554.563,392.355a1.5,1.5,0,0,1,2.124-.075l7.084,6.6a1.5,1.5,0,1,1-2.049,2.2l-7.084-6.6A1.5,1.5,0,0,1,554.563,392.355Z" transform="translate(-492.639 -328.699)" fill="#e6e6e6"/>
    <path id="Caminho_175" data-name="Caminho 175" d="M541.99,405.844a1.5,1.5,0,0,1,2.124-.075l7.084,6.6a1.5,1.5,0,0,1-2.049,2.2l-7.084-6.6A1.5,1.5,0,0,1,541.99,405.844Z" transform="translate(-483.253 -338.768)" fill="#e6e6e6"/>
    <path id="Caminho_176" data-name="Caminho 176" d="M577.883,470.043l-5.07,7.26-.236.285a2.816,2.816,0,0,1-1.607.96q-.134.027-.269.04a2.747,2.747,0,0,1-.334.014c-.064,0-.128,0-.191-.01a2.808,2.808,0,0,1-1.059-.309l-2.163-1.511a.868.868,0,0,1-.346-.5.879.879,0,0,1-.021-.308.866.866,0,0,1,.151-.4l6.243-8.939a.873.873,0,0,1,1.213-.215l3.474,2.426.024.017.015.012.02.016.025.021.022.02,0,0,.027.027.025.028.018.021h0c.017.021.033.043.047.065l.013.021,0,0,.01.017c.01.017.019.035.028.053a.885.885,0,0,1,.039.091c0,.01.007.02.01.03s.005.017.007.025v.005c0,.007,0,.015.006.022s.007.028.01.042l0,.012s0,.008,0,.012,0,.008,0,.011v.006c0,.012,0,.023,0,.035s0,.029,0,.043,0,.024,0,.036,0,.021,0,.032a.074.074,0,0,1,0,.008c0,.011,0,.022,0,.033,0,.028,0,.055-.009.082,0,.01,0,.02-.006.03s-.005.024-.008.036l0,.013-.005.02L578,469.8l-.006.017-.011.03-.007.018a.877.877,0,0,1-.063.125l-.009.015Z" transform="translate(-501.91 -384.214)" fill="#fff"/>
    <circle id="Elipse_16" data-name="Elipse 16" cx="0.744" cy="0.744" r="0.744" transform="translate(71.795 84.617)" fill="#ea4d00"/>
    <path id="Caminho_177" data-name="Caminho 177" d="M554.847,441.53a3.034,3.034,0,0,1,.682-4.6l-3.945-18.786,5.229,2.011,3.027,17.948a3.05,3.05,0,0,1-4.994,3.43Z" transform="translate(-490.716 -348.304)" fill="#ffb8b8"/>
    <path id="Caminho_178" data-name="Caminho 178" d="M544.407,325.927l-2.128-13.712-.8-26.335.594-7.893a4.863,4.863,0,0,1,9.219-1.767l1.555,3.187-.555,44.931Z" transform="translate(-483.173 -240.325)" fill="#025471"/>
    <path id="Caminho_179" data-name="Caminho 179" d="M502.682,754.612a.393.393,0,0,1-.394.394H396.3a.394.394,0,1,1,0-.788H502.288a.393.393,0,0,1,.394.394Z" transform="translate(-374.508 -599.177)" fill="#ccc"/>
    <path id="Caminho_180" data-name="Caminho 180" d="M587.154,233.273a.507.507,0,1,1,.847.4l.852,1.4a.254.254,0,0,1-.433.264l-.958-1.575A.506.506,0,0,1,587.154,233.273Z" transform="translate(-517.267 -209.946)" fill="#fff"/>
    <rect id="Retângulo_247" data-name="Retângulo 247" width="0.254" height="0.761" rx="0.127" transform="translate(70.769 24.278) rotate(153.236)" fill="#2f2e41"/>
  </g>
</svg>
