<svg xmlns="http://www.w3.org/2000/svg" xmlns:xlink="http://www.w3.org/1999/xlink" width="184.942" height="133.323" viewBox="0 0 184.942 133.323">
  <defs>
    <linearGradient id="linear-gradient" x1="0.5" y1="1.001" x2="0.5" gradientUnits="objectBoundingBox">
      <stop offset="0" stop-color="gray" stop-opacity="0.251"/>
      <stop offset="0.54" stop-color="gray" stop-opacity="0.122"/>
      <stop offset="1" stop-color="gray" stop-opacity="0.102"/>
    </linearGradient>
  </defs>
  <g id="undraw_fatherhood_-7-i19" transform="translate(0.01 0.003)">
    <path id="Caminho_301" data-name="Caminho 301" d="M63.3,484.53c2.926,12.508,9.121,23.32,18.91,28.568,20.348,10.891,66.235,5.273,100.481-1.18a78.42,78.42,0,0,0,44.594-25.492Z" transform="translate(-61.31 -412.051)" fill="#ea4d00" opacity="0.1"/>
    <path id="Caminho_302" data-name="Caminho 302" d="M266.218,68.163H247.428a1.623,1.623,0,1,1,0-3.247h3.248a1.625,1.625,0,0,1,0-3.248h-2.32a1.625,1.625,0,0,1,0-3.248h9.808a25.949,25.949,0,0,0-7.651-2.109c-26.742-3.434-36.29-1.161-39.658,1.18a37.451,37.451,0,0,1-13.745,6.025c-16.5,3.4-47.357,7.5-75.325-1.311-13.9-4.383-24.231,3.021-30.424,15.387H269.48a29.024,29.024,0,0,0-2.207-9.818A1.611,1.611,0,0,1,266.218,68.163Z" transform="translate(-84.64 -54.56)" fill="#ea4d00" opacity="0.1"/>
    <path id="Caminho_303" data-name="Caminho 303" d="M51.845,329.66a82.787,82.787,0,0,0,.728,21.822l164.978,6.035a77.518,77.518,0,0,0,11.463-17.483ZM117.1,345.226h-3.248a1.623,1.623,0,0,1,0,3.247H95.057a1.623,1.623,0,1,1,0-3.247h3.248a1.625,1.625,0,0,1,0-3.248h-2.32a1.625,1.625,0,0,1,0-3.248h18.791a1.625,1.625,0,0,1,0,3.248h2.32a1.625,1.625,0,0,1,0,3.248Z" transform="translate(-51.45 -283.288)" fill="#ea4d00" opacity="0.1"/>
    <path id="Caminho_304" data-name="Caminho 304" d="M238.426,191.84,58.31,196.223a71.864,71.864,0,0,0-4.31,18.6H235.271a77.048,77.048,0,0,0,2.618-11.856A56.174,56.174,0,0,0,238.426,191.84ZM90.567,206.2H87.318a1.623,1.623,0,1,1,0,3.247H68.528a1.623,1.623,0,1,1,0-3.247h3.248a1.625,1.625,0,0,1,0-3.248h-2.32a1.625,1.625,0,0,1,0-3.248H88.247a1.625,1.625,0,0,1,0,3.248h2.32a1.625,1.625,0,0,1,0,3.248Z" transform="translate(-53.578 -168.701)" fill="#ea4d00" opacity="0.1"/>
    <ellipse id="Elipse_28" data-name="Elipse 28" cx="58.803" cy="3.183" rx="58.803" ry="3.183" transform="translate(36.2 126.955)" fill="#ea4d00" opacity="0.1"/>
    <path id="Caminho_305" data-name="Caminho 305" d="M892.078,687.74s.925,1.212-.428,3.034-2.47,3.371-2.023,4.513c0,0,2.042-3.4,3.709-3.444S893.9,689.783,892.078,687.74Z" transform="translate(-748.258 -581.006)" fill="#ea4d00"/>
    <path id="Caminho_306" data-name="Caminho 306" d="M892.355,687.74a1.566,1.566,0,0,1,.189.379c1.622,1.907,2.485,3.685.927,3.729-1.453.042-3.194,2.638-3.611,3.294a1.3,1.3,0,0,0,.049.15s2.041-3.4,3.709-3.444S894.182,689.783,892.355,687.74Z" transform="translate(-748.535 -581.006)" opacity="0.1"/>
    <path id="Caminho_307" data-name="Caminho 307" d="M913.814,695.553c0,.426-.047.772-.106.772s-.108-.346-.108-.772.061-.226.12-.226S913.814,695.127,913.814,695.553Z" transform="translate(-768.273 -587.275)" fill="#ffd037"/>
    <path id="Caminho_308" data-name="Caminho 308" d="M914.768,698.474c-.374.2-.7.327-.728.275s.253-.26.627-.464.226-.056.255,0S915.143,698.27,914.768,698.474Z" transform="translate(-768.638 -589.687)" fill="#ffd037"/>
    <path id="Caminho_309" data-name="Caminho 309" d="M865.385,687.74s-.925,1.212.428,3.034,2.468,3.371,2.023,4.513c0,0-2.043-3.4-3.709-3.444S863.556,689.783,865.385,687.74Z" transform="translate(-726.458 -581.006)" fill="#ea4d00"/>
    <path id="Caminho_310" data-name="Caminho 310" d="M865.367,687.74a1.5,1.5,0,0,0-.189.379c-1.622,1.907-2.486,3.685-.927,3.729,1.451.042,3.2,2.638,3.611,3.294-.013.051-.03.1-.049.15,0,0-2.043-3.4-3.709-3.444S863.538,689.783,865.367,687.74Z" transform="translate(-726.44 -581.006)" opacity="0.1"/>
    <path id="Caminho_311" data-name="Caminho 311" d="M865.43,695.553c0,.426.047.772.106.772s.108-.346.108-.772-.061-.226-.12-.226S865.43,695.127,865.43,695.553Z" transform="translate(-728.224 -587.275)" fill="#ffd037"/>
    <path id="Caminho_312" data-name="Caminho 312" d="M860.8,698.474c.374.2.7.327.73.275s-.253-.26-.627-.464-.226-.056-.255,0S860.424,698.27,860.8,698.474Z" transform="translate(-724.184 -589.687)" fill="#ffd037"/>
    <path id="Caminho_313" data-name="Caminho 313" d="M867.18,724.685s2.589-.081,3.371-.635,3.983-1.22,4.177-.337,3.891,4.432.968,4.455-6.792-.455-7.571-.929S867.18,724.685,867.18,724.685Z" transform="translate(-729.679 -610.557)" fill="#a8a8a8"/>
    <path id="Caminho_314" data-name="Caminho 314" d="M875.755,734.764c-2.923.024-6.792-.455-7.571-.929-.593-.362-.829-1.659-.909-2.255h-.086s.169,2.087.942,2.562,4.648.953,7.571.929c.843,0,1.136-.307,1.119-.752C876.7,734.592,876.382,734.759,875.755,734.764Z" transform="translate(-729.687 -617.455)" opacity="0.2"/>
    <path id="Caminho_315" data-name="Caminho 315" d="M289.764,721.81a1.977,1.977,0,0,0,.647-.976.875.875,0,0,0-.452-.993c-.415-.158-.858.13-1.2.42a1.593,1.593,0,0,1-1.16.56,1.765,1.765,0,0,0,.546-1.654.694.694,0,0,0-.152-.337c-.231-.246-.647-.142-.924.052a3.443,3.443,0,0,0-1.126,2.879,5.411,5.411,0,0,1-.015-1.18,1.219,1.219,0,0,0-.445-1.05,1.348,1.348,0,0,0-.674-.158,1.409,1.409,0,0,0-1.1.312,1.084,1.084,0,0,0,.044,1.349,4.372,4.372,0,0,0,1.14.914,2.528,2.528,0,0,1,.816.777.969.969,0,0,1,.061.14h2.47A6.868,6.868,0,0,0,289.764,721.81Z" transform="translate(-244.387 -606.735)" fill="#ea4d00"/>
    <path id="Caminho_316" data-name="Caminho 316" d="M199.646,626.382s-2.37-8.043.443-13.961a12.7,12.7,0,0,0,1.032-7.972,21.278,21.278,0,0,0-1.128-3.739" transform="translate(-173.897 -508.647)" fill="none" stroke="#535461" stroke-miterlimit="10" stroke-width="2"/>
    <path id="Caminho_317" data-name="Caminho 317" d="M199.059,569.976c0,.986-1.783,3.845-1.783,3.845s-1.785-2.866-1.785-3.845a1.785,1.785,0,0,1,3.569,0Z" transform="translate(-171.217 -481.654)" fill="#ea4d00"/>
    <path id="Caminho_318" data-name="Caminho 318" d="M216.467,597.513c-.534.828-3.587,2.257-3.587,2.257s.056-3.371.592-4.2a1.785,1.785,0,0,1,3,1.94Z" transform="translate(-185.675 -503.731)" fill="#ea4d00"/>
    <path id="Caminho_319" data-name="Caminho 319" d="M212.506,649.583c-.88.443-4.236.137-4.236.137s1.75-2.881,2.63-3.324a1.785,1.785,0,1,1,1.607,3.188Z" transform="translate(-181.842 -546.471)" fill="#ea4d00"/>
    <path id="Caminho_320" data-name="Caminho 320" d="M202.912,691.812c-.792.587-4.152.843-4.152.843s1.237-3.134,2.023-3.72a1.785,1.785,0,1,1,2.122,2.866Z" transform="translate(-173.936 -581.662)" fill="#ea4d00"/>
    <path id="Caminho_321" data-name="Caminho 321" d="M187.808,610.143c.706.686,4,1.4,4,1.4s-.807-3.272-1.517-3.96a1.785,1.785,0,1,0-2.486,2.561Z" transform="translate(-164.349 -513.914)" fill="#ea4d00"/>
    <path id="Caminho_322" data-name="Caminho 322" d="M174.725,657.723c.88.443,4.236.137,4.236.137s-1.75-2.879-2.63-3.324a1.785,1.785,0,1,0-1.607,3.188Z" transform="translate(-153.135 -553.239)" fill="#ea4d00"/>
    <path id="Caminho_323" data-name="Caminho 323" d="M172.131,707.8c.792.585,4.15.843,4.15.843s-1.236-3.134-2.023-3.72a1.785,1.785,0,0,0-2.122,2.866Z" transform="translate(-151.256 -595.039)" fill="#ea4d00"/>
    <path id="Caminho_324" data-name="Caminho 324" d="M199.059,569.976c0,.986-1.783,3.845-1.783,3.845s-1.785-2.866-1.785-3.845a1.785,1.785,0,0,1,3.569,0Z" transform="translate(-171.217 -481.654)" fill="#ea4d00"/>
    <path id="Caminho_325" data-name="Caminho 325" d="M216.467,597.513c-.534.828-3.587,2.257-3.587,2.257s.056-3.371.592-4.2a1.785,1.785,0,0,1,3,1.94Z" transform="translate(-185.675 -503.731)" fill="#ea4d00"/>
    <path id="Caminho_326" data-name="Caminho 326" d="M212.506,649.583c-.88.443-4.236.137-4.236.137s1.75-2.881,2.63-3.324a1.785,1.785,0,1,1,1.607,3.188Z" transform="translate(-181.842 -546.471)" fill="#ea4d00"/>
    <path id="Caminho_327" data-name="Caminho 327" d="M202.912,691.812c-.792.587-4.152.843-4.152.843s1.237-3.134,2.023-3.72a1.785,1.785,0,1,1,2.122,2.866Z" transform="translate(-173.936 -581.662)" fill="#ea4d00"/>
    <path id="Caminho_328" data-name="Caminho 328" d="M187.808,610.143c.706.686,4,1.4,4,1.4s-.807-3.272-1.517-3.96a1.785,1.785,0,1,0-2.486,2.561Z" transform="translate(-164.349 -513.914)" fill="#ea4d00"/>
    <path id="Caminho_329" data-name="Caminho 329" d="M174.725,657.723c.88.443,4.236.137,4.236.137s-1.75-2.879-2.63-3.324a1.785,1.785,0,1,0-1.607,3.188Z" transform="translate(-153.135 -553.239)" fill="#ea4d00"/>
    <path id="Caminho_330" data-name="Caminho 330" d="M172.131,707.8c.792.585,4.15.843,4.15.843s-1.236-3.134-2.023-3.72a1.785,1.785,0,0,0-2.122,2.866Z" transform="translate(-151.256 -595.039)" fill="#ea4d00"/>
    <path id="Caminho_331" data-name="Caminho 331" d="M171,736.121s2.886-.573,3.655-1.337,4.231-2.1,4.616-1.146,5.192,4.2,1.922,4.774-7.692.764-8.653.381S171,736.121,171,736.121Z" transform="translate(-150.855 -618.892)" fill="#a8a8a8"/>
    <path id="Caminho_332" data-name="Caminho 332" d="M181.2,751.825c-3.269.573-7.692.764-8.653.383-.732-.292-1.241-1.686-1.441-2.338l-.1.022s.578,2.291,1.539,2.672,5.384.19,8.653-.381c.944-.169,1.214-.555,1.113-1.045C182.229,751.456,181.9,751.7,181.2,751.825Z" transform="translate(-150.855 -632.662)" opacity="0.2"/>
    <path id="Caminho_333" data-name="Caminho 333" d="M426.13,158.986a3.23,3.23,0,0,0,.551-2.588s-4.272-10.886-4.745-11.006-1.662-2.866-1.662-2.866-11.39-10.827-11.8-10.827-4.568-2.99-5.1-3.049a6.976,6.976,0,0,1-2.255-.843c-.89-.484-9.909.061-10.264.479a5.486,5.486,0,0,1-2.023.718s-3.382.179-3.857.777S381,130.7,381,130.7s-1.721.641.615,2.341h0c-.748.118-1.623.209-2.512.273-.223.015-.448.03-.674.042H378.3a2.2,2.2,0,0,0-.829-1.114,6.959,6.959,0,0,0-.787-.366,6.284,6.284,0,0,1-1.167-.8A38.232,38.232,0,0,0,370,127.417a2.642,2.642,0,0,0-.983-.369c-.723-.069-1.369.438-2.077.609-1.244.3-2.5-.46-3.778-.472a3.886,3.886,0,0,0-3.54,2.763,4.456,4.456,0,0,1-.651,1.65c-.506.588-1.36.674-2.053,1.023a3.1,3.1,0,0,0-1.665,2.746v.013a1.586,1.586,0,0,0,.015.268,9.366,9.366,0,0,0,.657,2.072,8.568,8.568,0,0,1,.472,2.175.109.109,0,0,1,0,.024c.01.123.019.246.024.371v.437c0,.644-.022,1.293-.02,1.937v.4a2.275,2.275,0,0,0,.01.26v.091a2.3,2.3,0,0,0,.02.239.424.424,0,0,0,.008.1,1.741,1.741,0,0,0,.029.229l.015.108c.012.076.025.152.039.228l.02.1c.017.081.037.169.057.243.008.029.013.056.02.084q.046.169.1.324a4.75,4.75,0,0,0,3.146,2.965,2.921,2.921,0,0,0,.834.1,1.734,1.734,0,0,0,1.29-.514c.074.084.147.169.224.253a10.1,10.1,0,0,0,16.407-2.191c.177-.039.352-.074.529-.108.307-.057.615-.111.925-.169l.3-.047h0l.118-.02c1.517-.239,2.99-.4,4.046-.506l-4.171.518s-1.011,4.857-1.3,5.394,1.011,1.435,1.011,1.435,1.128,1.376,1.128,1.8,1.3,1.615,1.66,2.272a1.011,1.011,0,0,0,.169.228,2.386,2.386,0,0,0-.718.437c-.824.781-.55,2.149-.927,3.221a5.464,5.464,0,0,1-1.205,1.751,2.39,2.39,0,0,0-.425.588,1.447,1.447,0,0,0-.113.452h0a2.214,2.214,0,0,0-.01.26v.03a.979.979,0,0,0,.013.2v.086c.083.7.322,1.386.394,2.09a20.1,20.1,0,0,0,.13,2.1,3.131,3.131,0,0,0,.233.693l-2.414,2.7s-.015.133-.02.352c-2.013,1.671-5.125,4.823-4.014,7.6q.182.457.337.875c-.818.521-1.087,1.14.138,1.757.194.1.381.182.565.258.629,1.846.875,2.36,1.928,1,.113-.148.244-.337.388-.541a4.1,4.1,0,0,0,2.341-.716s4.152-.239,5.226.42a6.845,6.845,0,0,0,2.921.4,30.6,30.6,0,0,0,.169,3.611s-.179,5.084.3,6.161a14.161,14.161,0,0,1,.738,2.931s-.8,1.794-.324,2.751-.415,2.333-.415,2.333V203.8l.337-.024c-.025.238-.057.487-.1.725a2.114,2.114,0,0,1-.47,1.205c-.593.426-.652,2.7-.652,2.7s-.949,2.753-.772,3.232-1.126,1.435-.829,2.153.9,5.263,1.431,6.574-1.075.957-1.075.957l.474,3.409s.475,3.469.12,3.709-2.4,1.974-.995,2.99c.11.079.221.152.337.221a3.642,3.642,0,0,1-.012.472c-.027.268-.094.482-.244.506-.418.061-1.249.479-1.424.3s-1.18.452-2.191.657l-.14.022-1.313-.337a9.241,9.241,0,0,0-5.934-.219,2.271,2.271,0,0,0-1.414.86,1.86,1.86,0,0,0-.128,1.591c.634,2.114,4.954,2.842,4.954,2.842s1.5.308,3.3.716h-.18a1.984,1.984,0,1,0,.674.123,40.268,40.268,0,0,1,5.173,1.431,15.833,15.833,0,0,0,2.078.624,1.972,1.972,0,0,0,3.672.826c2.753.575,5.4,1.062,5.4,1.062l4.428.072h.03a1.973,1.973,0,1,0,.027,0l6.7.11a1.977,1.977,0,1,0,3.816.062l5.913.1,1.18-1.3a1.049,1.049,0,0,0,.116-.406c.035-.426-.185-1.074-1.7-1.349-.111-.02-3.193.029-5.915.074v-1.069s-.076-.588-.123-1.281c-.013-.2-.025-.416-.03-.625a1.622,1.622,0,0,0,.506.231c1.128.18,2.67-3.11,2.67-3.11a17.137,17.137,0,0,1,.356-3.35c.356-1.5,1.011-6.52,1.011-6.52l1.426-6.04s.59-12.323.293-12.8.357-1.317.357-1.317.474-2.631-.238-3.528.415-1.8.415-1.8.3-3.11-.534-4.305a1.432,1.432,0,0,1,.389-2.033l.3-4.845c1.246-1.256,2.372-8.732,2.432-10.347a6.646,6.646,0,0,1,.593-2.633,6.964,6.964,0,0,0,.949-2.094,12.413,12.413,0,0,1,1.011-2.571l1.542-5.743a8.945,8.945,0,0,0,.051-5.249C426.259,159.293,426.2,159.136,426.13,158.986Zm-27.867.337c.949.6.652.777.949,1.136s.059.3-.179.9-.059.42.059,1.077.061.657.061.657l.3.042-.413,2.776a3.043,3.043,0,0,0-1.123,2.153c-.4-.519-.8-1.059-1.158-1.561a2.3,2.3,0,0,0,.1-.91,19.092,19.092,0,0,1,.565-2.974,7.513,7.513,0,0,0-.1-3.053,4.637,4.637,0,0,0-.4-1.084c.384.256.872.56,1.332.85Zm1.067,58.618s.75-.506,1.478-.966c.244,1.775.475,3.621.639,5.29-.261-.58-.443-.974-.443-.974a2.006,2.006,0,0,1-.458-1.136,7.16,7.16,0,0,0-1.215-2.207Zm-4.449-61.482a1.436,1.436,0,0,1,.634.494c-.209-.169-.42-.337-.636-.5Zm-10.858,22.13a20.253,20.253,0,0,1-4.383.1c.516-.882,1.028-1.778,1.483-2.583a5.481,5.481,0,0,0,.818.147l4.516-3.967a7.778,7.778,0,0,0,5.243-.034l.123.192c.052.084.108.169.169.263l-.113-.184s-1.743,1.038-1.566,1.517-.236,1.674-.888,2.955c-.169.32-.315.637-.457.956A46.019,46.019,0,0,0,384.024,178.589Zm8.569,55.265-.025-.474c.287-.062.475-.12.475-.12a18.664,18.664,0,0,0-.3-2.094c-.179-.718-.086-.479.609-1.011s0-6.574,0-6.574.337-.42.872.657a4.863,4.863,0,0,0,1.249,1.794c.179.059-.713,1.258,0,2.394a6.879,6.879,0,0,1,.888,2.392s-.474,1.9.238,2.744a1.045,1.045,0,0,0,.337.231c0,.157,0,.324,0,.48a5.893,5.893,0,0,1-.015.642.238.238,0,0,1-.379.148c-.184-.12-1.349.148-1.269.9a5.518,5.518,0,0,1-.931.872l-1.617-.418Z" transform="translate(-304.046 -114.826)" fill="url(#linear-gradient)"/>
    <path id="Caminho_334" data-name="Caminho 334" d="M490.287,389.684s-.565,4.627,3.914,5.1l.674-3.2-1.411-1.9L491.443,389Z" transform="translate(-416.3 -332.625)" fill="#ea4d00"/>
    <path id="Caminho_335" data-name="Caminho 335" d="M491.443,389l-1.156.683s-.565,4.627,3.914,5.1" transform="translate(-416.3 -332.625)" opacity="0.1"/>
    <path id="Caminho_336" data-name="Caminho 336" d="M475.629,177.932s-3.022.185-6.053.688q-.465.079-.925.169c-.179.034-.354.069-.529.108a12.55,12.55,0,0,0-3.877,1.295c-1.011.649-1.349-1.1-1.381-3.528-.013-.855.015-1.792.061-2.739.059-1.1.145-2.2.236-3.2.2-2.212.432-3.931.432-3.931s1.059,0,2.473-.049l.455-.017c.443-.017.914-.04,1.387-.069.224-.012.45-.025.674-.042.9-.064,1.782-.155,2.529-.273a5.522,5.522,0,0,0,1.792-.506C474.5,164.88,475.629,177.932,475.629,177.932Z" transform="translate(-393.516 -147.037)" fill="#f8bdc5"/>
    <path id="Caminho_337" data-name="Caminho 337" d="M610,333.939l-.59,3.916s-1.286,1.6-1.118,2.492,1.652,40.225,1.652,40.225,2.908,16.611,1.9,18.747-.059,7.121-.059,7.121l6.052-.949,2.023-72.619Z" transform="translate(-514.422 -285.957)" fill="#474463"/>
    <path id="Caminho_338" data-name="Caminho 338" d="M610,333.939l-.59,3.916s-1.286,1.6-1.118,2.492,1.652,40.225,1.652,40.225,2.908,16.611,1.9,18.747-.059,7.121-.059,7.121l6.052-.949,2.023-72.619Z" transform="translate(-514.422 -285.957)" fill="#004158" opacity="0.58"/>
    <path id="Caminho_339" data-name="Caminho 339" d="M639.285,752.738a5.049,5.049,0,0,0-.123,2.053c.047.686.123,1.269.123,1.269v4.034s-6.466-2.254-10.027-4.627c-1.468-.979-1.886-1.89-1.805-2.618a2.132,2.132,0,0,1,1.805-1.713,13.92,13.92,0,0,0,3.594-1.75c1.084-.642,1.984-1.217,1.984-1.217S639.641,752.145,639.285,752.738Z" transform="translate(-530.355 -631.249)" fill="#e5ad8a"/>
    <path id="Caminho_340" data-name="Caminho 340" d="M665.963,752.738a5.048,5.048,0,0,0-.123,2.053c-1.438-.674-5.89-4.993-6.31-5.4,1.084-.642,1.984-1.217,1.984-1.217S666.318,752.145,665.963,752.738Z" transform="translate(-557.033 -631.249)" opacity="0.1"/>
    <path id="Caminho_341" data-name="Caminho 341" d="M636.181,317.387l-1.542,5.7a12.357,12.357,0,0,0-1.011,2.551,6.928,6.928,0,0,1-.949,2.077,6.575,6.575,0,0,0-.593,2.609c-.059,1.6-1.18,9.019-2.432,10.264l-.3,4.806a1.429,1.429,0,0,0-.356,2.023c.824,1.193.534,4.272.534,4.272s-1.128.89-.415,1.78.236,3.5.236,3.5-.652.829-.356,1.3-.293,12.7-.293,12.7l-1.426,5.991s-.654,4.985-1.011,6.468a16.709,16.709,0,0,0-.356,3.321s-1.542,3.264-2.67,3.087-6.584-5.519-6.584-5.519l.77-18.037s.652-7.653.238-9.137-.711-8.9-.711-8.9l-.831-11.687-8.3-13.053s-.6-3.8,1.118-4.924l.312-2.052.281-1.864,9.85-1.069,15.069-3.914a4.858,4.858,0,0,1,1.77,2.5A8.75,8.75,0,0,1,636.181,317.387Z" transform="translate(-513.96 -266.676)" fill="#025471"/>
    <path id="Caminho_342" data-name="Caminho 342" d="M576.485,359.778s-7,8.6-6.7,6.2c.185-1.509-.772-3.351-1.517-4.516a14,14,0,0,0-.8-1.146s4.272-7.83,4.509-6.763a8.706,8.706,0,0,0,1.205,1.994C574.515,357.392,576.485,359.778,576.485,359.778Z" transform="translate(-480.483 -303.065)" fill="#ffc1c8"/>
    <path id="Caminho_343" data-name="Caminho 343" d="M639.285,782.352v.843s-6.466-2.254-10.027-4.627c-1.468-.979-1.886-1.89-1.805-2.618a66.636,66.636,0,0,1,6.729,3.746A35.01,35.01,0,0,0,639.285,782.352Z" transform="translate(-530.355 -654.346)" fill="#fff" opacity="0.3"/>
    <circle id="Elipse_29" data-name="Elipse 29" cx="1.977" cy="1.977" r="1.977" transform="translate(105.431 127.253)" fill="#025471"/>
    <circle id="Elipse_30" data-name="Elipse 30" cx="1.977" cy="1.977" r="1.977" transform="translate(85.232 124.477)" fill="#025471"/>
    <path id="Caminho_344" data-name="Caminho 344" d="M508.973,764.421a1.042,1.042,0,0,1-.116.4l-1.18,1.286-16.493-.265-4.435-.073s-9.336-1.7-11.154-2.491a84.845,84.845,0,0,0-8.97-2.242s-4.319-.725-4.953-2.82a1.812,1.812,0,0,1,.128-1.578,2.275,2.275,0,0,1,1.414-.855,9.322,9.322,0,0,1,5.934.219l27.646,7.112.428.11s9.855-.184,10.054-.148C508.787,763.356,509.008,764,508.973,764.421Z" transform="translate(-392.431 -637.264)" fill="#ea4d00"/>
    <path id="Caminho_345" data-name="Caminho 345" d="M508.973,770.52c-1.659-.216-4.551-.534-5.3-.228a32.226,32.226,0,0,0-12.5,1.652l-4.428-.073s-9.336-1.7-11.154-2.491a84.845,84.845,0,0,0-8.97-2.242s-4.319-.725-4.953-2.82a1.812,1.812,0,0,1,.128-1.578c.295.86.863,2.105,1.77,2.454,1.424.548,7.279,1.664,7.279,1.664l11.588,2.837s6.691,1.451,9.3.506a29.909,29.909,0,0,1,5.057-.995l.428.11s9.855-.184,10.054-.148C508.787,769.454,509.008,770.1,508.973,770.52Z" transform="translate(-392.431 -643.363)" fill="#fff" opacity="0.3"/>
    <path id="Caminho_346" data-name="Caminho 346" d="M588.636,764.152a5.487,5.487,0,0,1-.093.74,75.044,75.044,0,0,1-9.966-.271,2.519,2.519,0,0,1-1.74-.8,1.232,1.232,0,0,1-.123-1.18,1.858,1.858,0,0,1,.143-.317c.255-.445.646-.76.86-.718.593.12,1.612-1.1,1.612-1.1-.081-.743,1.087-1.011,1.269-.89a.238.238,0,0,0,.379-.148c.012-.056.015-.324.015-.637,0-.523-.015-1.18-.015-1.18l6.588.8.261,1.259c.239,1.123.573,2.665.716,3.193a3.81,3.81,0,0,1,.093,1.249Z" transform="translate(-488.097 -639.131)" fill="#025471"/>
    <path id="Caminho_347" data-name="Caminho 347" d="M589.718,794.375a5.478,5.478,0,0,1-.093.74,75.044,75.044,0,0,1-9.966-.271,2.519,2.519,0,0,1-1.74-.8,10.75,10.75,0,0,1,2.717.091C581.642,794.382,587.652,794.382,589.718,794.375Z" transform="translate(-489.18 -669.354)" opacity="0.1"/>
    <path id="Caminho_348" data-name="Caminho 348" d="M505.714,752.366a.337.337,0,0,1-.143.317c-.829.641-4.809-.056-4.809-.056s-8.132-.506-9.347-1.335a.858.858,0,0,1-.268-.281c-.506-.914,1.325-2.448,1.483-2.448s2.345-.3,2.492-.327c1.011-.2,2.023-.831,2.191-.652s1.011-.238,1.423-.3c.15-.022.219-.234.244-.506a5.62,5.62,0,0,0-.037-1.1l6.5,1.748.057,1.035.187,3.446.024.423A.149.149,0,0,1,505.714,752.366Z" transform="translate(-416.96 -629.179)" fill="#025471"/>
    <path id="Caminho_349" data-name="Caminho 349" d="M501.235,778.917s-8.132-.506-9.347-1.335a.858.858,0,0,1-.268-.281c1.647.135,4.393.362,4.889.489.713.169,4.72.415,4.72.415h4.927l.024.423C506.394,779.82,501.235,778.917,501.235,778.917Z" transform="translate(-417.427 -655.469)" opacity="0.1"/>
    <circle id="Elipse_31" data-name="Elipse 31" cx="1.977" cy="1.977" r="1.977" transform="translate(75.33 124.477)" fill="#025471"/>
    <circle id="Elipse_32" data-name="Elipse 32" cx="1.977" cy="1.977" r="1.977" transform="translate(96.806 128.581)" fill="#025471"/>
    <path id="Caminho_350" data-name="Caminho 350" d="M474.034,391.105s-.374.674-.937,1.676c-1.349,2.38-3.774,6.6-4.818,7.935-1.483,1.9-1.364.12-2.967-3.855-1.19-2.957,2.473-6.34,4.432-7.877.674-.534,1.146-.843,1.146-.843Z" transform="translate(-395.361 -331.91)" fill="#f8bdc5"/>
    <path id="Caminho_351" data-name="Caminho 351" d="M480.593,432.83s-4.924.415-5.873.711a23.307,23.307,0,0,1-5.394,0c-.352-.118-7.358,1.483-4.154,3.085s5.226,0,5.226,0,4.154-.238,5.226.416,4.983.3,4.983.3Z" transform="translate(-394.742 -369.066)" fill="#ffc1c8"/>
    <path id="Caminho_352" data-name="Caminho 352" d="M469.117,179.07a4.919,4.919,0,0,1-.487,4.292,13.89,13.89,0,0,0-4.412,1.4c-2.67,1.721-.652-13.408-.652-13.408s1.291,0,2.928-.066C466,173.552,467.876,175.9,469.117,179.07Z" transform="translate(-393.495 -151.615)" opacity="0.1"/>
    <path id="Caminho_353" data-name="Caminho 353" d="M401.221,165.482a10.114,10.114,0,1,1-1.011-4.422A10.114,10.114,0,0,1,401.221,165.482Z" transform="translate(-325.448 -138.365)" fill="#f8bdc5"/>
    <path id="Caminho_354" data-name="Caminho 354" d="M643.825,312.155a2.316,2.316,0,0,1-1.349.936c-2.314.652-18.631,4.568-19.7,4.331-.942-.209-4.986-.791-5.919-.924l.281-1.864,9.85-1.069,15.069-3.914A4.867,4.867,0,0,1,643.825,312.155Z" transform="translate(-521.556 -266.651)" opacity="0.1"/>
    <path id="Caminho_355" data-name="Caminho 355" d="M510.167,177.88a56.865,56.865,0,0,0-5.757.641.4.4,0,0,0-.01-.265l3.945-.487s-.577-9.271-2.7-11.493a5.522,5.522,0,0,0,1.792-.506C509.041,164.828,510.167,177.88,510.167,177.88Z" transform="translate(-428.053 -146.985)" opacity="0.1"/>
    <path id="Caminho_356" data-name="Caminho 356" d="M498.41,140.194s3.5-.315,3.975-.909,3.857-.77,3.857-.77a5.529,5.529,0,0,0,2.023-.713c.362-.416,9.373-.949,10.263-.474a7.128,7.128,0,0,0,2.255.831c.534.061,4.686,3.024,5.1,3.024s11.8,10.74,11.8,10.74,1.18,2.729,1.662,2.847,4.747,10.917,4.747,10.917.593,2.609-1.719,3.264-18.631,4.568-19.7,4.331-6.111-.949-6.111-.949.059,0-.059-.652-.3-.475-.061-1.069.475-.534.179-.89,0-.534-.949-1.128a11.947,11.947,0,0,1-2.077-1.423c-.054-.177-.89-1.365-1.3-1.424s-12.045-3.323-12.045-3.323l-2.729-.89s-1.3-.89-1.011-1.423,1.3-5.352,1.3-5.352l4.172-.514s-.622-10.047-2.958-11.733S498.41,140.194,498.41,140.194Z" transform="translate(-421.456 -123.223)" fill="#ea4d00"/>
    <path id="Caminho_357" data-name="Caminho 357" d="M497.04,391.105s-.374.674-.937,1.676a3.517,3.517,0,0,0-3.353-3.8c.674-.534,1.146-.843,1.146-.843Z" transform="translate(-418.367 -331.91)" opacity="0.1"/>
    <path id="Caminho_358" data-name="Caminho 358" d="M492.179,272.34l.287,1.6s1.128,1.365,1.128,1.78,1.3,1.6,1.662,2.254,1.6.772,1.126,1.9-3.2,9.73-3.2,9.73l-2.788,3.085s4.627-.416,3.914,5.1l5.993-5.226,4.693-8.538s-4.568-8.661-4.745-9.373S492.179,272.34,492.179,272.34Z" transform="translate(-416.405 -235.631)" fill="#ea4d00"/>
    <path id="Caminho_359" data-name="Caminho 359" d="M583.31,275.213s3.8-2.67,3.8-2.967S583.31,275.213,583.31,275.213Z" transform="translate(-493.661 -235.537)" opacity="0.1"/>
    <path id="Caminho_360" data-name="Caminho 360" d="M621,300.778s2.023-.475,2.191-1.542S621,300.778,621,300.778Z" transform="translate(-524.998 -257.779)" opacity="0.1"/>
    <path id="Caminho_361" data-name="Caminho 361" d="M630.82,317.568s2.849-1.411,2.729-1.655S630.82,317.568,630.82,317.568Z" transform="translate(-533.162 -271.84)" opacity="0.1"/>
    <path id="Caminho_362" data-name="Caminho 362" d="M716.858,272.23s-1.18.77-.829,1.492S716.858,272.23,716.858,272.23Z" transform="translate(-603.953 -235.539)" opacity="0.1"/>
    <path id="Caminho_363" data-name="Caminho 363" d="M728.619,274.1s-3.361,3.2-2.6,3.264S728.619,274.1,728.619,274.1Z" transform="translate(-612.219 -237.094)" opacity="0.1"/>
    <path id="Caminho_364" data-name="Caminho 364" d="M696.64,568.68s4.331.831,4.449,1.128S696.64,568.68,696.64,568.68Z" transform="translate(-587.887 -482.016)" opacity="0.1"/>
    <path id="Caminho_365" data-name="Caminho 365" d="M705.79,585.57s2.313,1.424,2.372,1.839S705.79,585.57,705.79,585.57Z" transform="translate(-595.494 -496.059)" opacity="0.1"/>
    <path id="Caminho_366" data-name="Caminho 366" d="M702.62,604.58s.356,1.6.949,1.839S702.62,604.58,702.62,604.58Z" transform="translate(-592.859 -511.864)" opacity="0.1"/>
    <path id="Caminho_367" data-name="Caminho 367" d="M399.979,160.95a.114.114,0,0,1-.008.052,1.494,1.494,0,0,1-.792,1.274,1.261,1.261,0,0,1-.9-.083c-.843-.369-1.593-1.256-2.493-1.042a1.493,1.493,0,0,0-.941.826,4.146,4.146,0,0,0-.337.905,3.238,3.238,0,0,0-.046,2.008,2.056,2.056,0,0,0,.152.3c.239.383.577.708.813,1.094a1.181,1.181,0,0,1-.088,1.536.925.925,0,0,1-.786.11,4.674,4.674,0,0,1-.959-.425,1.963,1.963,0,0,0-1.915-.145c-.2.121-.352.3-.539.425a1.945,1.945,0,0,1-1.3.271c-1.072-.11-1.473-.789-2.293-1.315-.6-.388-1.854-.553-2.212.239-.229.506.111,1.143-.113,1.659s-.937.674-1.268,1.153c-.435.63-.03,1.542-.349,2.242a1.144,1.144,0,0,1-.194.3A10.145,10.145,0,0,1,397.755,158l.455-.017c.443-.017.914-.04,1.387-.069a3.86,3.86,0,0,1,.261.74A6.169,6.169,0,0,1,399.979,160.95Z" transform="translate(-325.206 -138.306)" opacity="0.1"/>
    <path id="Caminho_368" data-name="Caminho 368" d="M363.966,148.887c-.231.506.11,1.143-.113,1.657s-.941.674-1.268,1.153c-.437.632-.032,1.544-.349,2.242-.364.8-1.463.922-2.306.689a4.72,4.72,0,0,1-3.146-2.942c-.571-1.627-.2-3.417-.351-5.135a8.518,8.518,0,0,0-.472-2.156,9.149,9.149,0,0,1-.657-2.055,3.055,3.055,0,0,1,1.649-3c.695-.337,1.549-.433,2.055-1.011a4.44,4.44,0,0,0,.651-1.639,3.885,3.885,0,0,1,3.54-2.739c1.278.01,2.529.764,3.778.467.706-.169,1.349-.674,2.077-.6a2.635,2.635,0,0,1,.983.366,38.3,38.3,0,0,1,5.514,3.624,6.207,6.207,0,0,0,1.168.794,7.248,7.248,0,0,1,.787.362,2.538,2.538,0,0,1,.984,1.6,6.125,6.125,0,0,1,.125,2.3,1.528,1.528,0,0,1-.8,1.328,1.259,1.259,0,0,1-.9-.086c-.843-.366-1.591-1.252-2.491-1.04-.735.169-1.089,1-1.281,1.731a3.218,3.218,0,0,0-.046,2.009,11.67,11.67,0,0,0,.963,1.389c.288.484.371,1.207-.088,1.536-.506.366-1.192-.024-1.746-.314a1.964,1.964,0,0,0-1.913-.147c-.194.121-.351.3-.539.426a1.962,1.962,0,0,1-1.3.27c-1.074-.11-1.475-.789-2.293-1.315C365.576,148.258,364.325,148.093,363.966,148.887Z" transform="translate(-304.08 -120.451)" fill="#004158"/>
    <path id="Caminho_369" data-name="Caminho 369" d="M573.185,355.525c-.046.253-.393.282-.464.528a7.812,7.812,0,0,1-4.447,5.394c-.44-.693-.8-1.146-.8-1.146s4.272-7.83,4.509-6.763A8.823,8.823,0,0,0,573.185,355.525Z" transform="translate(-480.491 -303.057)" opacity="0.1"/>
    <path id="Caminho_370" data-name="Caminho 370" d="M524.864,317.48a7.8,7.8,0,1,1-2.286-5.545A7.832,7.832,0,0,1,524.864,317.48Z" transform="translate(-432.044 -266.651)" fill="#ffc1c8"/>
    <path id="Caminho_371" data-name="Caminho 371" d="M544.405,747.458l.057,1.035a4.233,4.233,0,0,1-2.751-.115c-.983-.6-2.434-.748-3.764-1.568a5.615,5.615,0,0,0-.037-1.1Z" transform="translate(-455.914 -629.204)" opacity="0.1"/>
    <path id="Caminho_372" data-name="Caminho 372" d="M609.346,759.7c-.046.231-.088.373-.088.373s-5.234-.536-6.743-1.259c0-.523-.015-1.18-.015-1.18l6.588.8Z" transform="translate(-509.616 -639.114)" opacity="0.1"/>
    <path id="Caminho_373" data-name="Caminho 373" d="M550.707,585.317c-.356.949-.534,1.128-.177,1.6s.177,2.967-.389,3.2-2.7,1.66-2.7,1.66a7.206,7.206,0,0,1,1.215,2.191,1.986,1.986,0,0,0,.458,1.128s1.827,3.916,2.191,5.162.7,3.2.7,3.2a4.856,4.856,0,0,0-.2,2.79,4.352,4.352,0,0,1,0,2.492s-6.374-.652-7.08-1.49-.236-2.722-.236-2.722a6.816,6.816,0,0,0-.89-2.373c-.713-1.128.169-2.313,0-2.373a5.013,5.013,0,0,1-1.249-1.778c-.536-1.067-.87-.654-.87-.654s.695,5.993,0,6.527-.789.3-.61,1.011a18.346,18.346,0,0,1,.3,2.077s-2.136.652-3.2,0-2.674-.772-4.084-1.78.639-2.729.995-2.967-.118-3.678-.118-3.678l-.475-3.382s1.6.356,1.076-.949-1.135-5.814-1.431-6.525,1.011-1.662.831-2.136.77-3.2.77-3.2.061-2.254.652-2.677a2.092,2.092,0,0,0,.47-1.2,14.866,14.866,0,0,0,.184-1.942s13.585-.949,15.78.356c.988.587.919,1.667.506,2.761a21.6,21.6,0,0,1-1.805,3.191C550.827,583.754,551.063,584.368,550.707,585.317Z" transform="translate(-452.16 -488.27)" fill="#004158"/>
    <path id="Caminho_374" data-name="Caminho 374" d="M569.125,579.653c-1.686.474-3.931,1.17-4.3,1.569-.593.654-2.611-3.678-2.611-3.678s.12,3.257-2.55,1.895c-2.311-1.18-6.042-1.025-7.006-.961a14.858,14.858,0,0,0,.184-1.942s13.585-.949,15.78.356C569.612,577.478,569.543,578.559,569.125,579.653Z" transform="translate(-468.178 -488.27)" opacity="0.1"/>
    <path id="Caminho_375" data-name="Caminho 375" d="M558.766,378.929s1.18-1.424,1.424-.89a8.059,8.059,0,0,0,1.637,1.6s.4,1.246,1.1,1.424,5.983,7.3,5.983,7.3l-1.9,3.855-1.542,9.374a4.232,4.232,0,0,1-.352,2.023c-.42.539-2.023.415-1.279,1.067s1.81,1.246,2.4,4.214a27.581,27.581,0,0,0,1.3,4.686s-5.576,1.424-6.17,2.077-2.611-3.678-2.611-3.678.12,3.255-2.551,1.895-7.238-.946-7.238-.946v-3.506s.89-1.365.416-2.314.324-2.729.324-2.729a13.976,13.976,0,0,0-.74-2.906c-.475-1.067-.3-6.111-.3-6.111a22.374,22.374,0,0,1-.032-4.926,14.734,14.734,0,0,1,1.462-4.127c.652-1.271,1.065-2.458.888-2.933s1.566-1.5,1.566-1.5l.966,1.563.246.934S558.885,380.709,558.766,378.929Z" transform="translate(-464.727 -323.411)" fill="#dce6f2"/>
    <path id="Caminho_376" data-name="Caminho 376" d="M592.717,432.83s3.323,3.262,3.678,3.8,1.547,3.312.005,4.155-7.586,2.143-8.186,1.694-4.214.506-4.214.506-6.045,1.483-4.74-.949,4.391-2.023,4.391-2.023,4.986-.008,5.519-.506,4.551-1.564,3.641-3.763S592.717,432.83,592.717,432.83Z" transform="translate(-490.141 -369.066)" fill="#ffc1c8"/>
    <path id="Caminho_377" data-name="Caminho 377" d="M567.483,519.41s-7.739,6.7-6.969,6.7S567.483,519.41,567.483,519.41Z" transform="translate(-474.663 -441.051)" opacity="0.1"/>
    <path id="Caminho_378" data-name="Caminho 378" d="M622.653,535.6s-2.459.592-1.984.949S622.653,535.6,622.653,535.6Z" transform="translate(-524.672 -454.512)" opacity="0.1"/>
    <path id="Caminho_379" data-name="Caminho 379" d="M581.29,439.16s3.07.275,2.529,1.236S581.29,439.16,581.29,439.16Z" transform="translate(-491.982 -374.329)" opacity="0.1"/>
    <path id="Caminho_380" data-name="Caminho 380" d="M569.027,610.09a2.653,2.653,0,0,0,0,1.854c.416.647,0,2.191,0,2.191v5.394s-.057,3.916,1.364,5.28Z" transform="translate(-481.632 -516.445)" opacity="0.1"/>
    <path id="Caminho_381" data-name="Caminho 381" d="M545.83,709.81a10.133,10.133,0,0,1,.949,1.66C546.9,711.915,545.83,709.81,545.83,709.81Z" transform="translate(-462.499 -599.355)" opacity="0.1"/>
    <path id="Caminho_382" data-name="Caminho 382" d="M547.06,694.328a7.293,7.293,0,0,1,2.225-.148C549.582,694.387,547.06,694.328,547.06,694.328Z" transform="translate(-463.522 -586.306)" opacity="0.1"/>
    <path id="Caminho_383" data-name="Caminho 383" d="M543.023,738.49s-.565.059.563.674,3.323,1.394,3.351,1.128S543.023,738.49,543.023,738.49Z" transform="translate(-460.048 -623.201)" opacity="0.1"/>
    <path id="Caminho_384" data-name="Caminho 384" d="M592.69,703.332c.2,0,2.682-.148,2.539.238S592.69,703.332,592.69,703.332Z" transform="translate(-501.46 -593.946)" opacity="0.1"/>
    <path id="Caminho_385" data-name="Caminho 385" d="M612.7,679.6s.563-.978.77-.563S612.7,679.6,612.7,679.6Z" transform="translate(-518.097 -573.682)" opacity="0.1"/>
    <path id="Caminho_386" data-name="Caminho 386" d="M524.872,317.42a7.8,7.8,0,0,1-.3,2.153,1.173,1.173,0,0,1-1.295.079,3.487,3.487,0,0,1-1.087-1.18,2.686,2.686,0,0,0-1.158-1.089,2.106,2.106,0,0,0-1.913.4c-.553.4-.995.924-1.517,1.349a2.468,2.468,0,0,1-1.854.664,3.184,3.184,0,0,1-1.18-.543,10.587,10.587,0,0,0-1.6-1.028c-.555-.214-1.011.169-1.539.169-.42.152-.877.5-.792.934a1.447,1.447,0,0,0,.216.452,1.9,1.9,0,0,1-.248,2.089,7.832,7.832,0,1,1,14.273-4.455Z" transform="translate(-432.052 -266.591)" opacity="0.1"/>
    <path id="Caminho_387" data-name="Caminho 387" d="M503.849,302.93c-.42.152-.877.5-.794.936a1.5,1.5,0,0,0,.217.45,1.892,1.892,0,0,1-.843,2.547.747.747,0,0,1-.469.074.83.83,0,0,1-.337-.2,3.12,3.12,0,0,1-.973-1.677,20.216,20.216,0,0,1-.13-2.082c-.074-.693-.312-1.376-.394-2.073a1.923,1.923,0,0,1,.106-1.025,2.385,2.385,0,0,1,.425-.583,5.474,5.474,0,0,0,1.205-1.736c.376-1.065.1-2.422.925-3.2a5.144,5.144,0,0,1,1.386-.716,9.753,9.753,0,0,0,1.273-.807,7,7,0,0,1,5.194-1.483,7.388,7.388,0,0,1,2.058.843,23.149,23.149,0,0,1,3.371,2.266,5.247,5.247,0,0,1,1.18,1.212,4.2,4.2,0,0,1,.516,1.29,7.391,7.391,0,0,1,.1,3.034,19.616,19.616,0,0,0-.566,2.95,1.905,1.905,0,0,1-.147.991,1.1,1.1,0,0,1-1.44.25,3.435,3.435,0,0,1-1.086-1.18,2.664,2.664,0,0,0-1.158-1.087,2.106,2.106,0,0,0-1.913.4c-.553.4-.993.924-1.517,1.349a2.458,2.458,0,0,1-1.854.664,3.18,3.18,0,0,1-1.18-.541,10.405,10.405,0,0,0-1.6-1.028C504.848,302.543,504.375,302.93,503.849,302.93Z" transform="translate(-424.478 -251.358)" fill="#025471"/>
    <path id="Caminho_388" data-name="Caminho 388" d="M593.642,432.83s-8.72,8.068-6.942,12.1,9.609-3.085,9.609-3.085l2.792-6.46Z" transform="translate(-496.281 -369.066)" fill="#f8bdc5"/>
    <g id="Grupo_57" data-name="Grupo 57" transform="translate(75.627 47.097)" opacity="0.1">
      <path id="Caminho_389" data-name="Caminho 389" d="M502.451,351.077a.742.742,0,0,1-.467.074.806.806,0,0,1-.337-.2,3.125,3.125,0,0,1-.974-1.676,20.87,20.87,0,0,1-.128-2.084c-.074-.693-.314-1.374-.395-2.073a.445.445,0,0,0-.008-.1,2.672,2.672,0,0,0,.008.58c.081.7.32,1.372.395,2.073a20.652,20.652,0,0,0,.128,2.082,3.124,3.124,0,0,0,.974,1.677.819.819,0,0,0,.337.2.742.742,0,0,0,.467-.074,1.9,1.9,0,0,0,1.038-1.945A1.87,1.87,0,0,1,502.451,351.077Z" transform="translate(-500.13 -343.147)"/>
      <path id="Caminho_390" data-name="Caminho 390" d="M532.389,335.02a19.4,19.4,0,0,0-.565,2.95,1.89,1.89,0,0,1-.148.991,1.1,1.1,0,0,1-1.438.249,3.44,3.44,0,0,1-1.087-1.18,2.654,2.654,0,0,0-1.158-1.087,2.1,2.1,0,0,0-1.911.4c-.553.4-.995.922-1.517,1.349a2.469,2.469,0,0,1-1.854.666,3.21,3.21,0,0,1-1.18-.543,10.527,10.527,0,0,0-1.6-1.028c-.553-.214-1.011.169-1.539.169-.42.153-.877.5-.8.937a.7.7,0,0,0,.046.138,1.312,1.312,0,0,1,.75-.6c.526,0,.991-.378,1.539-.169a10.159,10.159,0,0,1,1.6,1.028,3.132,3.132,0,0,0,1.18.541,2.432,2.432,0,0,0,1.854-.664c.519-.43.966-.961,1.517-1.349a2.127,2.127,0,0,1,1.912-.4,2.675,2.675,0,0,1,1.158,1.087,3.582,3.582,0,0,0,1.087,1.18,1.085,1.085,0,0,0,1.438-.25,2.013,2.013,0,0,0,.148-.991,18.8,18.8,0,0,1,.565-2.95,7.465,7.465,0,0,0,.108-1.537,7.472,7.472,0,0,1-.108,1.06Z" transform="translate(-514.642 -333.96)"/>
    </g>
    <path id="Caminho_391" data-name="Caminho 391" d="M561.551,172.666s-3.2,5.814,1.18,8.781,4.806,2.67,4.806,2.67a4.266,4.266,0,0,0,0,.89c.061.179,1.18.592,1.18.592a9.593,9.593,0,0,0,3.321,3.146,4.642,4.642,0,0,1,2.315,3.2,2.022,2.022,0,0,0,1.011,1.483,7.414,7.414,0,0,1,1.79,2.788v1.9c0,.3.356,1.18-.415,1.274s-.12,1.869-.12,1.869-.829,1.011-.652,1.483-.356,1.423-.356,1.423-.652.949-.593,1.128-.711.831-.534,1.246-.888.949-.711,1.424-.759.711-.759.711l-2.564,5.934s5.394,1.18,6.787,4.152l6.8-12.459s3.8-9.314,3.916-9.907a9.312,9.312,0,0,0-.831-2.729l-4.627-8.429-6.942-9.789S570.035,163.708,561.551,172.666Z" transform="translate(-474.631 -149.958)" opacity="0.1"/>
    <path id="Caminho_392" data-name="Caminho 392" d="M582,187.927s-8.334,2.925-3.945,5.892,4.806,2.668,4.806,2.668a4.391,4.391,0,0,0,0,.89c.059.177,1.18.593,1.18.593a9.605,9.605,0,0,0,3.323,3.146,4.642,4.642,0,0,1,2.315,3.2,2.022,2.022,0,0,0,1.011,1.483,7.344,7.344,0,0,1,1.78,2.788v1.9c0,.3.356,1.18-.416,1.276s-.118,1.869-.118,1.869-.831,1.011-.652,1.482-.356,1.424-.356,1.424-.652.949-.593,1.128-.713.831-.534,1.246-.89.949-.711,1.424-.76.711-.76.711l-2.562,5.932s4.444.229,5.846,3.2l7.739-11.5s3.8-9.314,3.916-9.907a9.432,9.432,0,0,0-.828-2.736l-4.627-8.429-10.556-6.089S590.48,178.967,582,187.927Z" transform="translate(-488.227 -162.766)" opacity="0.1"/>
    <path id="Caminho_393" data-name="Caminho 393" d="M564.371,172.669s-3.2,5.814,1.18,8.781,4.806,2.67,4.806,2.67a4.389,4.389,0,0,0,0,.89c.059.179,1.18.592,1.18.592a9.606,9.606,0,0,0,3.323,3.146,4.642,4.642,0,0,1,2.314,3.2,2.022,2.022,0,0,0,1.011,1.483,7.4,7.4,0,0,1,1.789,2.788v1.9c0,.3.356,1.18-.416,1.274s-.118,1.869-.118,1.869-.831,1.011-.652,1.483-.356,1.423-.356,1.423-.652.949-.593,1.128-.713.831-.534,1.246-.89.949-.711,1.424-.76.711-.76.711l-2.562,5.934s5.384,1.18,6.785,4.152l6.8-12.459s3.8-9.314,3.916-9.907a9.366,9.366,0,0,0-.831-2.729l-4.627-8.429-6.94-9.786S572.853,163.711,564.371,172.669Z" transform="translate(-476.976 -149.961)" fill="#ea4d00"/>
    <g id="Grupo_58" data-name="Grupo 58" transform="translate(51.211 21.351)" opacity="0.1">
      <path id="Caminho_394" data-name="Caminho 394" d="M356.434,185.507a8.458,8.458,0,0,0-.472-2.158,9.149,9.149,0,0,1-.657-2.055v-.064a2.747,2.747,0,0,0,0,.539,9.231,9.231,0,0,0,.657,2.055,8.445,8.445,0,0,1,.472,2.156c.024.276.034.556.037.843C356.476,186.377,356.471,185.94,356.434,185.507Z" transform="translate(-355.291 -181.23)"/>
      <path id="Caminho_395" data-name="Caminho 395" d="M367.932,228.246c-.362.8-1.463.922-2.306.688a4.73,4.73,0,0,1-3.146-2.94,6.961,6.961,0,0,1-.337-2.244,7.714,7.714,0,0,0,.337,2.717,4.732,4.732,0,0,0,3.146,2.942c.843.233,1.944.108,2.306-.689a2.572,2.572,0,0,0,.131-1.113A1.738,1.738,0,0,1,367.932,228.246Z" transform="translate(-360.987 -216.582)"/>
      <path id="Caminho_396" data-name="Caminho 396" d="M465.744,181.886a1.524,1.524,0,0,1-.8,1.327,1.261,1.261,0,0,1-.9-.084c-.843-.367-1.593-1.254-2.493-1.04-.735.169-1.087,1-1.281,1.731a4.264,4.264,0,0,0-.18,1.428,5.565,5.565,0,0,1,.18-.954c.194-.73.546-1.556,1.281-1.731.9-.212,1.644.674,2.493,1.04a1.254,1.254,0,0,0,.9.086,1.524,1.524,0,0,0,.8-1.328,6.128,6.128,0,0,0,.051-1.04C465.786,181.509,465.769,181.7,465.744,181.886Z" transform="translate(-442.42 -181.305)"/>
      <path id="Caminho_397" data-name="Caminho 397" d="M416.319,218.5c-.506.366-1.192-.024-1.746-.315a1.964,1.964,0,0,0-1.913-.147c-.194.121-.351.3-.539.426a1.94,1.94,0,0,1-1.3.27c-1.074-.11-1.475-.789-2.293-1.315-.6-.386-1.854-.551-2.212.241a1.438,1.438,0,0,0-.069.73.949.949,0,0,1,.069-.255c.359-.794,1.612-.629,2.212-.241.818.526,1.219,1.205,2.293,1.315a1.95,1.95,0,0,0,1.3-.271c.189-.128.346-.3.539-.425a1.968,1.968,0,0,1,1.913.147c.555.29,1.237.674,1.746.314a.934.934,0,0,0,.3-.963A.779.779,0,0,1,416.319,218.5Z" transform="translate(-397.64 -211.054)"/>
      <path id="Caminho_398" data-name="Caminho 398" d="M398.742,229.074c-.231.529-.941.674-1.268,1.151a2.042,2.042,0,0,0-.216,1.239,1.4,1.4,0,0,1,.216-.764c.327-.477,1.037-.624,1.268-1.153a1.467,1.467,0,0,0,.064-.718A.951.951,0,0,1,398.742,229.074Z" transform="translate(-390.181 -220.806)"/>
    </g>
  </g>
</svg>
