<svg xmlns="http://www.w3.org/2000/svg" xmlns:xlink="http://www.w3.org/1999/xlink" width="206.383" height="152.222" viewBox="0 0 206.383 152.222">
  <defs>
    <linearGradient id="linear-gradient" x1="0.5" y1="1" x2="0.5" gradientUnits="objectBoundingBox">
      <stop offset="0" stop-color="gray" stop-opacity="0.251"/>
      <stop offset="0.54" stop-color="gray" stop-opacity="0.122"/>
      <stop offset="1" stop-color="gray" stop-opacity="0.102"/>
    </linearGradient>
    <linearGradient id="linear-gradient-2" x1="0.5" y1="1" x2="0.5" y2="0" xlink:href="#linear-gradient"/>
  </defs>
  <g id="undraw_doctors_hwty" transform="translate(-0.005 -0.003)">
    <path id="Caminho_181" data-name="Caminho 181" d="M90.64,356.76h17.9v24.4H91.949c-.042.252-.085.5-.132.755h16.726V401.6a.252.252,0,0,1-.083-.032q-.706-.281-1.411-.595c-.1-.046-.2-.094-.3-.138q-.706-.333-1.411-.706c-.164-.086-.328-.176-.489-.268a29.36,29.36,0,0,1-7.039-5.479c-.062-.058-.118-.122-.176-.176-.286-.31-.566-.625-.838-.946-.1-.118-.2-.238-.3-.353-.321-.392-.632-.8-.931-1.2-.046-.062-.088-.122-.132-.176a26.06,26.06,0,0,1-3.034-5.487c-.025-.058-.048-.122-.071-.176-.243-.617-.464-1.244-.654-1.882-.081-.266-.161-.529-.228-.806-.025-.079-.044-.161-.065-.24a48.7,48.7,0,0,1-1.106-12.01V369.51q.021-2.475.058-4.945.014-.635.026-1.275.037-1.621.106-3.25c.011-.3.025-.6.041-.9q.011-.259.026-.519Q90.575,357.684,90.64,356.76Z" transform="translate(-76.755 -297.094)" fill="#ea4d00" opacity="0.1"/>
    <path id="Caminho_182" data-name="Caminho 182" d="M148,144.809H138.18a74.754,74.754,0,0,1,5.224-7.187c1.461-1.792,3-3.539,4.6-5.222Z" transform="translate(-116.213 -112.314)" fill="#ea4d00" opacity="0.1"/>
    <path id="Caminho_183" data-name="Caminho 183" d="M110.536,207v25.665H92.69c0-.074.011-.15.018-.224.016-.2.032-.4.049-.607.018-.236.041-.473.064-.706s.046-.515.074-.771.051-.515.079-.771.056-.512.088-.766.06-.512.1-.766c.026-.21.053-.422.083-.633.041-.3.083-.6.127-.893a.849.849,0,0,1,.021-.134,61.557,61.557,0,0,1,1.313-6.443,47.7,47.7,0,0,1,2.214-6.527A49.018,49.018,0,0,1,100.246,207Z" transform="translate(-78.748 -173.754)" fill="#ea4d00" opacity="0.1"/>
    <path id="Caminho_184" data-name="Caminho 184" d="M218.09,78.226v24.4h38.24v-24.4Zm0,25.159v20.958c.219.044.434.088.651.125.291.056.584.108.882.152l.176.025c.116.019.235.035.353.049.295.042.589.074.882.1.138.014.28.025.42.037l.34.025h0c.185.014.369.025.552.032.113,0,.226.009.34.012s.176,0,.268,0h.981c.152,0,.3,0,.453-.014h.009a2.7,2.7,0,0,0,.316-.012.776.776,0,0,0,.09,0,2.124,2.124,0,0,0,.261-.011.37.37,0,0,1,.06,0c.2-.012.393-.028.593-.046s.388-.039.587-.06l.4-.049a35.131,35.131,0,0,0,4.843-1.03c3.569-.995,7.057-2.387,10.624-3.4,4.608-1.314,9.7-1.962,14.156-.362V103.385Zm38.24-52.33V18.566a49.137,49.137,0,0,0-12.423,1.455c-9.683,2.433-18.379,7.709-25.817,14.448V51.053h1.925v.753H218.09V77.471h38.24V51.806H227.888v-.755ZM305.458,40.08a15.83,15.83,0,0,1-6.933-2.015c-4.118-2.239-7.409-5.7-11.086-8.618a50.9,50.9,0,0,0-26.831-10.663v32.27h54.584l.136-.143Zm4.973-.882,5.273,5.788V37.675a21.11,21.11,0,0,0-5.273,1.515Zm5.273,90.349V103.385H304.459c-.028-.111-.06-.224-.1-.337.034.113.064.226.094.337h-43.85V122.3c.416.309.827.635,1.235.963h0q.66.54,1.311,1.092l.438.362c.21.176.423.353.635.52q.637.513,1.283,1.016.323.254.649.5a88.576,88.576,0,0,0,10.874,7.111c.85.475,1.709.931,2.574,1.378q.863.445,1.738.871,1.313.64,2.646,1.235h0a97.134,97.134,0,0,0,25.757,7.5q2.96.436,5.947.688v-16h.176Zm-55.1-77.741V77.471h55.1V51.806Zm0,26.416V102.63h55.1v-24.4ZM319.98,37.64v8.168l6.728-7.386Q323.364,37.869,319.98,37.64Zm0,40.586v24.4h53.586v-24.4Zm53.4,53.256.189-28.1H319.98v42.44a96.556,96.556,0,0,0,10.356-.125h.06q2.47-.159,4.917-.452h.037a90.411,90.411,0,0,0,25.268-6.75M383.9,82.234q-.305-.706-.626-1.411c-.4-.882-.819-1.739-1.253-2.6h-4.181v24.4h10.569a52.806,52.806,0,0,0-4.509-20.4Zm-6.06,21.15v24.169a34.584,34.584,0,0,0,7.3-9.851,33.905,33.905,0,0,0,3.258-14.32Zm0-32.27v6.351h3.789a69.01,69.01,0,0,0-3.789-6.351ZM341.5,42.43c-.279-.108-.559-.215-.84-.318a76.239,76.239,0,0,0-9.05-2.72l-10.3,11.3h0l-.2.217.132.143H357.9a78.311,78.311,0,0,0-16.4-8.623Zm17.474,9.376H320.732l-.752.686V77.471h53.586v-12.1A76.3,76.3,0,0,0,358.977,51.806Z" transform="translate(-182.026 -18.56)" fill="#ea4d00" opacity="0.1"/>
    <path id="Caminho_185" data-name="Caminho 185" d="M110.536,280.39v12.718H92.69c0-.074.011-.15.018-.224.016-.2.032-.4.049-.607.018-.236.041-.473.064-.706s.046-.515.074-.771.051-.515.079-.771.056-.512.088-.766.06-.512.1-.766c.026-.21.053-.422.083-.633q.061-.447.127-.893a.85.85,0,0,1,.021-.134A61.558,61.558,0,0,1,94.7,280.4Z" transform="translate(-78.748 -234.197)" fill="#ea4d00" opacity="0.1"/>
    <path id="Caminho_186" data-name="Caminho 186" d="M90.64,356.76h17.9v24.4H91.949c-.042.252-.085.5-.132.755h16.726V401.6a.252.252,0,0,1-.083-.032q-.706-.281-1.411-.595c-.1-.046-.2-.094-.3-.138q-.706-.333-1.411-.706c-.164-.086-.328-.176-.489-.268a29.36,29.36,0,0,1-7.039-5.479c-.062-.058-.118-.122-.176-.176-.286-.31-.566-.625-.838-.946-.1-.118-.2-.238-.3-.353-.321-.392-.632-.8-.931-1.2-.046-.062-.088-.122-.132-.176a26.06,26.06,0,0,1-3.034-5.487c-.025-.058-.048-.122-.071-.176-.243-.617-.464-1.244-.654-1.882-.081-.266-.161-.529-.228-.806-.025-.079-.044-.161-.065-.24a48.7,48.7,0,0,1-1.106-12.01V369.51q.021-2.475.058-4.945.014-.635.026-1.275.037-1.621.106-3.25c.011-.3.025-.6.041-.9q.011-.259.026-.519Q90.575,357.684,90.64,356.76Z" transform="translate(-76.755 -297.094)" fill="#ea4d00" opacity="0.1"/>
    <path id="Caminho_187" data-name="Caminho 187" d="M215.592,174.525v21.988H202.13V174.525h1.919V167.08h7.879v7.445Z" transform="translate(-166.068 -137.602)" fill="#ea4d00" opacity="0.1"/>
    <rect id="Retângulo_248" data-name="Retângulo 248" width="13.46" height="24.403" transform="translate(36.062 59.664)" fill="#ea4d00" opacity="0.1"/>
    <path id="Caminho_188" data-name="Caminho 188" d="M218.09,499.37h13.46v20.288a34.864,34.864,0,0,1-4.843,1.029c-.134.019-.266.035-.4.049-.2.023-.393.044-.589.062l-.591.048h-.06l-.261.014h-.09c-.106,0-.21.012-.316.014h-.009c-.152,0-.3.011-.453.014h-1.249a2.779,2.779,0,0,1-.342-.014q-.272-.011-.55-.032h0l-.34-.025c-.141-.011-.282-.025-.422-.039q-.445-.039-.882-.1l-.353-.049-.176-.025c-.295-.044-.587-.094-.882-.15-.219-.039-.434-.083-.651-.129Z" transform="translate(-182.026 -414.545)" fill="#ea4d00" opacity="0.1"/>
    <rect id="Retângulo_249" data-name="Retângulo 249" width="11.1" height="24.583" transform="translate(122.576 34.326)" fill="#ea4d00" opacity="0.1"/>
    <path id="Caminho_189" data-name="Caminho 189" d="M498.246,338.19V362.6h-55.1V352.069H472.5v6.21h14.648V338.19Z" transform="translate(-364.568 -278.526)" fill="#ea4d00" opacity="0.1"/>
    <path id="Caminho_190" data-name="Caminho 190" d="M514.371,523.965a.994.994,0,0,1-.176-.011v16.01q-2.983-.245-5.945-.686a97.264,97.264,0,0,1-25.767-7.5q-3.551-1.6-6.958-3.491a88.893,88.893,0,0,1-10.872-7.111q-1.3-.995-2.565-2.034c-.584-.483-1.163-.977-1.752-1.455-.406-.33-.817-.656-1.235-.967V497.8h43.85c-.032-.113-.06-.224-.092-.337.034.113.065.224.094.337H514.2v26.155C514.254,523.954,514.313,523.959,514.371,523.965Z" transform="translate(-380.518 -412.972)" fill="#ea4d00" opacity="0.1"/>
    <path id="Caminho_191" data-name="Caminho 191" d="M901.743,160.992H894.51v-2.248h3.241V152.05q.422.155.84.318v6.377h3.151Z" transform="translate(-739.115 -128.498)" fill="#ea4d00" opacity="0.1"/>
    <path id="Caminho_192" data-name="Caminho 192" d="M837.751,232.665h-42.1V208.081h1.866v18.171h8.528V215.491h7.048V207h7.233v8.5h7.044v10.761h10.384Z" transform="translate(-657.696 -173.754)" fill="#ea4d00" opacity="0.1"/>
    <path id="Caminho_193" data-name="Caminho 193" d="M795.65,356.76v24.4h42.1v-24.4Zm53.526,53.127.06-19.317H837.753v-8.644h-42.1v42.433a96.554,96.554,0,0,0,10.356-.125h.06q2.47-.159,4.917-.452h.037a90.413,90.413,0,0,0,25.268-6.75" transform="translate(-657.696 -297.094)" fill="#ea4d00" opacity="0.1"/>
    <path id="Caminho_194" data-name="Caminho 194" d="M1124.391,499.37h9.821a33.925,33.925,0,0,1-3.258,14.318,34.568,34.568,0,0,1-7.3,9.853V508.016h.741Z" transform="translate(-927.832 -414.545)" fill="#ea4d00" opacity="0.1"/>
    <path id="Caminho_195" data-name="Caminho 195" d="M1137.678,399.875h-9.828v-20.4h5.319A52.806,52.806,0,0,1,1137.678,399.875Z" transform="translate(-931.291 -315.806)" fill="#ea4d00" opacity="0.1"/>
    <rect id="Retângulo_250" data-name="Retângulo 250" width="5.947" height="7.708" transform="translate(127.731 41.16)" fill="#ea4d00" opacity="0.1"/>
    <rect id="Retângulo_251" data-name="Retângulo 251" width="5.947" height="1.775" transform="translate(127.731 57.136)" fill="#ea4d00" opacity="0.1"/>
    <rect id="Retângulo_252" data-name="Retângulo 252" width="5.947" height="5.178" transform="translate(127.731 59.664)" fill="#ea4d00" opacity="0.1"/>
    <rect id="Retângulo_253" data-name="Retângulo 253" width="5.947" height="7.708" transform="translate(127.731 73.112)" fill="#ea4d00" opacity="0.1"/>
    <rect id="Retângulo_254" data-name="Retângulo 254" width="5.947" height="7.708" transform="translate(127.731 89.089)" fill="#ea4d00" opacity="0.1"/>
    <path id="Caminho_196" data-name="Caminho 196" d="M743.647,620.015a.858.858,0,0,1,.176.012,1,1,0,0,1-.176-.01v1.791H737.7V614.1h5.947Z" transform="translate(-609.969 -509.035)" fill="#ea4d00" opacity="0.1"/>
    <path id="Caminho_197" data-name="Caminho 197" d="M743.647,704.65V710.6q-2.985-.245-5.947-.686V704.65Z" transform="translate(-609.969 -583.611)" fill="#ea4d00" opacity="0.1"/>
    <rect id="Retângulo_255" data-name="Retângulo 255" width="25.487" height="0.566" transform="translate(78.582 83.503)" fill="#ea4d00" opacity="0.1"/>
    <rect id="Retângulo_256" data-name="Retângulo 256" width="25.487" height="2.17" transform="translate(78.582 84.823)" fill="#ea4d00" opacity="0.1"/>
    <rect id="Retângulo_257" data-name="Retângulo 257" width="25.487" height="3.489" transform="translate(78.582 94.106)" fill="#ea4d00" opacity="0.1"/>
    <path id="Caminho_198" data-name="Caminho 198" d="M490.352,612.08v3.49H470.417q-1.3-.991-2.565-2.036c-.586-.482-1.164-.976-1.752-1.454Z" transform="translate(-386.283 -507.372)" fill="#ea4d00" opacity="0.1"/>
    <path id="Caminho_199" data-name="Caminho 199" d="M561.262,672.17v3.5h-2.1q-3.551-1.6-6.958-3.491Z" transform="translate(-457.194 -556.861)" fill="#ea4d00" opacity="0.1"/>
    <rect id="Retângulo_258" data-name="Retângulo 258" width="5.017" height="5.017" transform="translate(148.31 62.03)" fill="#ea4d00" opacity="0.1"/>
    <rect id="Retângulo_259" data-name="Retângulo 259" width="5.017" height="5.017" transform="translate(39.677 38.653)" fill="#ea4d00" opacity="0.1"/>
    <rect id="Retângulo_260" data-name="Retângulo 260" width="5.017" height="5.017" transform="translate(39.677 50.307)" fill="#ea4d00" opacity="0.1"/>
    <rect id="Retângulo_261" data-name="Retângulo 261" width="5.017" height="5.017" transform="translate(39.677 61.961)" fill="#ea4d00" opacity="0.1"/>
    <rect id="Retângulo_262" data-name="Retângulo 262" width="5.017" height="5.017" transform="translate(39.677 73.613)" fill="#ea4d00" opacity="0.1"/>
    <rect id="Retângulo_263" data-name="Retângulo 263" width="5.017" height="5.017" transform="translate(39.677 85.267)" fill="#ea4d00" opacity="0.1"/>
    <rect id="Retângulo_264" data-name="Retângulo 264" width="5.017" height="5.017" transform="translate(39.677 96.921)" fill="#ea4d00" opacity="0.1"/>
    <rect id="Retângulo_265" data-name="Retângulo 265" width="5.017" height="5.017" transform="translate(167.463 62.03)" fill="#ea4d00" opacity="0.1"/>
    <rect id="Retângulo_266" data-name="Retângulo 266" width="5.017" height="5.017" transform="translate(148.31 74.406)" fill="#ea4d00" opacity="0.1"/>
    <rect id="Retângulo_267" data-name="Retângulo 267" width="5.017" height="5.017" transform="translate(167.463 74.406)" fill="#ea4d00" opacity="0.1"/>
    <rect id="Retângulo_268" data-name="Retângulo 268" width="5.017" height="5.017" transform="translate(148.31 86.779)" fill="#ea4d00" opacity="0.1"/>
    <rect id="Retângulo_269" data-name="Retângulo 269" width="5.017" height="5.017" transform="translate(167.463 86.779)" fill="#ea4d00" opacity="0.1"/>
    <rect id="Retângulo_270" data-name="Retângulo 270" width="5.017" height="5.017" transform="translate(148.31 99.155)" fill="#ea4d00" opacity="0.1"/>
    <rect id="Retângulo_271" data-name="Retângulo 271" width="5.017" height="5.017" transform="translate(167.463 99.155)" fill="#ea4d00" opacity="0.1"/>
    <rect id="Retângulo_272" data-name="Retângulo 272" width="5.017" height="5.017" transform="translate(148.31 111.53)" fill="#ea4d00" opacity="0.1"/>
    <rect id="Retângulo_273" data-name="Retângulo 273" width="5.017" height="5.017" transform="translate(167.463 111.53)" fill="#ea4d00" opacity="0.1"/>
    <path id="Caminho_200" data-name="Caminho 200" d="M838.4,705.565V702.33h5.015V705.1Z" transform="translate(-690.09 -578.426)" fill="#ea4d00" opacity="0.1"/>
    <path id="Caminho_201" data-name="Caminho 201" d="M96.53,316.91v2.87H113.7v-2.87Zm1.709,2.69H96.828v-2.509h1.411Zm1.709,0H98.538v-2.509h1.411Zm1.706,0h-1.411v-2.509h1.411Zm1.709,0h-1.411v-2.509h1.411Zm1.708,0h-1.411v-2.509h1.411Zm1.709,0H105.37v-2.509h1.411Zm1.709,0H107.08v-2.509h1.411Zm1.708,0h-1.411v-2.509H110.2Zm1.708,0h-1.411v-2.509h1.411Zm1.709,0H112.2v-2.509h1.411Z" transform="translate(-81.911 -264.274)" fill="#ea4d00" opacity="0.1"/>
    <path id="Caminho_202" data-name="Caminho 202" d="M96.53,364.27v2.87H113.7v-2.87Zm1.709,2.69H96.828v-2.509h1.411Zm1.709,0H98.538v-2.509h1.411Zm1.706,0h-1.411v-2.509h1.411Zm1.709,0h-1.411v-2.509h1.411Zm1.708,0h-1.411v-2.509h1.411Zm1.709,0H105.37v-2.509h1.411Zm1.709,0H107.08v-2.509h1.411Zm1.708,0h-1.411v-2.509H110.2Zm1.708,0h-1.411v-2.509h1.411Zm1.709,0H112.2v-2.509h1.411Z" transform="translate(-81.911 -303.279)" fill="#ea4d00" opacity="0.1"/>
    <path id="Caminho_203" data-name="Caminho 203" d="M96.53,411.64v2.868H113.7V411.64Zm1.709,2.687H96.828v-2.509h1.411Zm1.709,0H98.538v-2.509h1.411Zm1.706,0h-1.411v-2.509h1.411Zm1.709,0h-1.411v-2.509h1.411Zm1.708,0h-1.411v-2.509h1.411Zm1.709,0H105.37v-2.509h1.411Zm1.709,0H107.08v-2.509h1.411Zm1.708,0h-1.411v-2.509H110.2Zm1.708,0h-1.411v-2.509h1.411Zm1.709,0H112.2v-2.509h1.411Z" transform="translate(-81.911 -342.292)" fill="#ea4d00" opacity="0.1"/>
    <path id="Caminho_204" data-name="Caminho 204" d="M96.53,459v2.868H113.7V459Zm1.709,2.689H96.828v-2.512h1.411Zm1.709,0H98.538v-2.512h1.411Zm1.706,0h-1.411v-2.512h1.411Zm1.709,0h-1.411v-2.512h1.411Zm1.708,0h-1.411v-2.512h1.411Zm1.709,0H105.37v-2.512h1.411Zm1.709,0H107.08v-2.512h1.411Zm1.708,0h-1.411v-2.512H110.2Zm1.708,0h-1.411v-2.512h1.411Zm1.709,0H112.2v-2.512h1.411Z" transform="translate(-81.911 -381.297)" fill="#ea4d00" opacity="0.1"/>
    <path id="Caminho_205" data-name="Caminho 205" d="M97,506.34c.067.272.146.54.228.806v-.625h1.411v2.507h-.757c.021.06.044.122.069.176h16.142V506.34Zm3.352,2.689H98.941v-2.507h1.411Zm1.706,0h-1.411v-2.507h1.411Zm1.709,0h-1.411v-2.507h1.411Zm1.708,0h-1.411v-2.507h1.411Zm1.709,0h-1.411v-2.507h1.411Zm1.709,0h-1.411v-2.507h1.411Zm1.708,0H109.19v-2.507H110.6Zm1.708,0H110.9v-2.507h1.411Zm1.709,0h-1.411v-2.507h1.411Z" transform="translate(-82.298 -420.286)" fill="#ea4d00" opacity="0.1"/>
    <path id="Caminho_206" data-name="Caminho 206" d="M119.54,553.7c.046.056.088.12.132.176h.933v1.2l.3.353v-1.565h1.411v2.53h-.58c.056.058.111.12.176.176h10.731V553.7Zm4.492,2.7H122.62V553.88h1.411Zm1.709,0H124.33V553.88h1.411Zm1.709,0h-1.411V553.88h1.411Zm1.708,0h-1.411V553.88h1.411Zm1.708,0h-1.411V553.88h1.411Zm1.709,0h-1.411V553.88h1.411Z" transform="translate(-100.862 -459.291)" fill="#ea4d00" opacity="0.1"/>
    <path id="Caminho_207" data-name="Caminho 207" d="M172.93,601.06c.162.092.326.177.49.266v-.088h1.411v.8c.1.044.2.092.3.138v-.933h1.411v1.528a.571.571,0,0,0,.083.03V601.06Z" transform="translate(-144.833 -498.296)" fill="#ea4d00" opacity="0.1"/>
    <path id="Caminho_208" data-name="Caminho 208" d="M335.555,229.14Zm-10.867,52.069Zm-11.338-26.492c.034.113.064.226.094.337h0C313.416,254.942,313.384,254.829,313.349,254.716Zm22.205-25.577ZM229,202.724v.752h7.88v-.755Zm95.689,78.485Zm-11.34-26.492c.034.113.064.226.094.337h0C313.416,254.942,313.384,254.829,313.349,254.716Zm22.205-25.577Zm-10.867,52.069Zm-11.338-26.492c.034.113.064.226.094.337h0C313.416,254.942,313.384,254.829,313.349,254.716Z" transform="translate(-191.011 -170.229)" fill="#ea4d00" opacity="0.1"/>
    <ellipse id="Elipse_17" data-name="Elipse 17" cx="17.19" cy="2.761" rx="17.19" ry="2.761" transform="translate(138.358 146.704)" fill="#ea4d00" opacity="0.1"/>
    <ellipse id="Elipse_18" data-name="Elipse 18" cx="17.19" cy="2.761" rx="17.19" ry="2.761" transform="translate(60.831 143.943)" fill="#ea4d00" opacity="0.1"/>
    <path id="Caminho_209" data-name="Caminho 209" d="M425,304.629a.093.093,0,0,0-.026-.046c-.263-.259-3.615-5-3.615-5s-.176-.529-.462-1.217a1.211,1.211,0,0,0,.2-.4,1.362,1.362,0,0,0,.034-.185c0-.019.014-.035.019-.055a1.339,1.339,0,0,0-.018-.727,1.259,1.259,0,0,1-.072.176,2.948,2.948,0,0,0-.265-.589c-.445-.766-1.08-1.411-1.547-2.158a5.837,5.837,0,0,1-.8-3.874c0,.069,0,.139,0,.208a6.036,6.036,0,0,1,.106-.794,5.507,5.507,0,0,1,.295-.871c.42-.961,1.1-1.8,1.512-2.764a5.241,5.241,0,0,0,.314-1.011,5.664,5.664,0,0,0,.157-1.773,2.827,2.827,0,0,1-.044.422,5.742,5.742,0,0,0-1.621-3.823,9.543,9.543,0,0,0-5.49-2.307,5.03,5.03,0,0,1-2.311-.882,4.018,4.018,0,0,0-2.632-.5,4.341,4.341,0,0,0-2.68,1.325c-.94,1.034-1.348,2.5-2.445,3.37a10.853,10.853,0,0,1-2.283,1.136,3.056,3.056,0,0,0-1.755,1.655v.028l-.011.028c-.258.914.24,1.844.5,2.756a11.167,11.167,0,0,1,.3,2.916c.019,1.193.037,2.387.018,3.581-.009.469-.025.944-.06,1.411a7.4,7.4,0,0,0-1.212.487,24,24,0,0,0-1.874,1.854l-2.891,11.047.039.044-.039.15.146-.034a14.884,14.884,0,0,0,2.951,2.48l.123,2.166a3.851,3.851,0,0,0,2.147,3.071c.046.753.189,3.812-.473,5.024a5.645,5.645,0,0,0-.625,2.872,9.767,9.767,0,0,1-.032,2.8,4.587,4.587,0,0,0-.034,1.969h0v.58c0,1.956.023,8.226,0,8.935-.034.838,0,13.231,0,13.231s-.164,6.194-.69,7.872-.393,7.233-.393,7.233-.33,6.617.836,7.923c0,.058-.011.118-.012.176v.083c-.014.5.083,1.037.515,1.2a7.382,7.382,0,0,1,2.269,1.646,4.116,4.116,0,0,0,3.175.822,23.91,23.91,0,0,1,3.156-.145h0s.66-.12.446-.94h0a7.346,7.346,0,0,0-1.02-1.815c.067.018.132.032.194.044l.064.012h.049a.667.667,0,0,0,.081,0h.035a.606.606,0,0,0,.1,0h0a4.427,4.427,0,0,1,2.389,1.235,3.23,3.23,0,0,0,2.117.991,15.04,15.04,0,0,0,2.627-.166,9.67,9.67,0,0,0,1.471-.268c.233-.088.282-.37.215-.688h0a1.79,1.79,0,0,0-.61-1.03,4.954,4.954,0,0,1-.942-1.175l-.074-.118c.492-.469,1.381-2,1.651-2.322.328-.386-.529-14.515-.529-14.515v-7.083l1.314-6.7.919-3.548.789-5.356s1.38-6.256.954-6.87h0c0-.012-.353-6.453-.723-8a17.538,17.538,0,0,1-.025-3.752.741.741,0,0,0,.176-.773,1.606,1.606,0,0,0-.1-.263v-.081a12.15,12.15,0,0,1,2.376-.808c1.314-.258.986-.935.986-.935s.3-.58.492-.935a20.379,20.379,0,0,0,0-3.742c-.012-.1-.093-.679-.187-1.332.422-.3.97-.672,1.568-1.025C425.351,305.525,425.1,304.814,425,304.629Zm-17.147,44.726s-.986,2.516-.591,3.16-.065,3.034-.065,3.034l-.33,3.548s-.919,6.58-.591,8.127a55.04,55.04,0,0,1,.383,6.351h0a.441.441,0,0,0-.065.032l-.044.023c.152-.594.088-1.8-.665-4.218l-.064-10s-.116-11.548.8-12.839a9.719,9.719,0,0,0,1.235-3.484s-.2,3.163-.326,4A6.6,6.6,0,0,0,407.855,349.355Zm-1.836,24.85c-.009.021-.019.042-.026.062l-.049-.064A.52.52,0,0,0,406.018,374.2Z" transform="translate(-327.191 -230.929)" fill="url(#linear-gradient)"/>
    <path id="Caminho_210" data-name="Caminho 210" d="M471.136,835a17.516,17.516,0,0,1-4.047.436,3.139,3.139,0,0,1-2.087-1,4.288,4.288,0,0,0-2.36-1.235,1.586,1.586,0,0,1-.529-.074,6.514,6.514,0,0,1-.882-.339,1.638,1.638,0,0,1,.019-.67,1.075,1.075,0,0,1,.039-.13,1.166,1.166,0,0,1,.593-.66l.063-.03a1.789,1.789,0,0,1,.381-.116c1.387-.266,7.108.268,7.108.268s.161.288.381.644a4.925,4.925,0,0,0,.931,1.182,1.808,1.808,0,0,1,.6,1.037C471.415,834.626,471.365,834.912,471.136,835Z" transform="translate(-382.251 -687.76)" fill="#fff"/>
    <path id="Caminho_211" data-name="Caminho 211" d="M471.146,837.306a17.5,17.5,0,0,1-4.045.436,3.156,3.156,0,0,1-2.089-1,4.3,4.3,0,0,0-2.359-1.235,4.088,4.088,0,0,1-1.411-.413,1.462,1.462,0,0,1,.289-1.187l.882.626s2.36.732,2.8,1.411a2.842,2.842,0,0,0,2.387,1.127,22.335,22.335,0,0,0,3.765-.446C471.425,836.934,471.377,837.219,471.146,837.306Z" transform="translate(-382.262 -690.068)" opacity="0.1"/>
    <path id="Caminho_212" data-name="Caminho 212" d="M427.575,836.2a23.487,23.487,0,0,0-3.116.146,4.012,4.012,0,0,1-3.142-.827,7.359,7.359,0,0,0-2.239-1.658c-.429-.166-.529-.706-.51-1.21v-.083a4.941,4.941,0,0,1,.141-.947l6.864-.146.594.806.092.124.362.492s.164.215.379.529a7.531,7.531,0,0,1,1.007,1.828h0C428.226,836.076,427.575,836.2,427.575,836.2Z" transform="translate(-347.136 -688.058)" fill="#fff"/>
    <path id="Caminho_213" data-name="Caminho 213" d="M427.575,841.706a23.5,23.5,0,0,0-3.116.146,4.006,4.006,0,0,1-3.14-.827,7.154,7.154,0,0,0-2.24-1.655c-.429-.166-.529-.706-.51-1.21a3.917,3.917,0,0,1,1.925.917,4.174,4.174,0,0,0,2.823,1.9c1.087.058,3.733-.136,4.7-.214C428.228,841.586,427.575,841.706,427.575,841.706Z" transform="translate(-347.136 -693.568)" opacity="0.1"/>
    <path id="Caminho_214" data-name="Caminho 214" d="M426.728,831.6c-.079.589-.325.748-.5.783a.34.34,0,0,1-.131,0,.438.438,0,0,1-.069-.011s-6.164,1.362-7.409.259a.873.873,0,0,1-.088-.092,4.94,4.94,0,0,1,.141-.947l6.864-.146.595.806a1.166,1.166,0,0,1,.593-.66Z" transform="translate(-347.105 -688.042)" opacity="0.1"/>
    <path id="Caminho_215" data-name="Caminho 215" d="M473.235,832.014c-.138.152-.252.238-.325.208-.325-.131-2.985-.584-3.83-.194s-3.7.063-3.7.063,0-.339-.016-.882a1.793,1.793,0,0,1,.381-.116c1.387-.266,7.108.268,7.108.268S473.016,831.657,473.235,832.014Z" transform="translate(-385.674 -687.686)" opacity="0.1"/>
    <path id="Caminho_216" data-name="Caminho 216" d="M434.741,568.012l-.78,5.388-.907,3.571-1.3,6.75v7.145s.843,14.216.519,14.6-1.558,2.6-1.882,2.47-2.985-.584-3.83-.2-3.7.065-3.7.065a68.277,68.277,0,0,0-.39-7.074c-.325-1.558.584-8.179.584-8.179l.325-3.569s.455-2.4.065-3.052.584-3.175.584-3.175a6.645,6.645,0,0,1-.323-2.274c.131-.843.323-4.024.323-4.024a9.922,9.922,0,0,1-1.224,3.505c-.9,1.3-.787,12.917-.787,12.917l.064,10.056c1.625,5.324,0,4.8,0,4.8s-6.164,1.364-7.409.259-.889-8.055-.889-8.055-.129-5.582.39-7.268.683-7.919.683-7.919-.034-12.464,0-13.305c.025-.706,0-7.023,0-9v-.584l.744-1.849,8.821-1.1h4.22s6.351,1.492,7.007,2.136a.146.146,0,0,1,.035.039C436.1,561.718,434.741,568.012,434.741,568.012Z" transform="translate(-343.154 -463.59)" fill="#ea4d00"/>
    <path id="Caminho_217" data-name="Caminho 217" d="M472.11,770.88s1.941,4.673,2.856,5S472.11,770.88,472.11,770.88Z" transform="translate(-391.233 -638.157)" opacity="0.1"/>
    <path id="Caminho_218" data-name="Caminho 218" d="M476.18,809.88s6.552.325,6.487,1.039S476.18,809.88,476.18,809.88Z" transform="translate(-394.585 -670.277)" opacity="0.1"/>
    <path id="Caminho_219" data-name="Caminho 219" d="M426.49,799.29c.259.245,5,.706,4.608,1.154s-4.218,1.32-4.218,1.32Z" transform="translate(-353.661 -661.555)" opacity="0.1"/>
    <path id="Caminho_220" data-name="Caminho 220" d="M422.08,753.59a59.593,59.593,0,0,0,1.235,6.49,10.089,10.089,0,0,0,2.4.519Z" transform="translate(-350.029 -623.917)" opacity="0.1"/>
    <path id="Caminho_221" data-name="Caminho 221" d="M430.405,279.433c-.93,1.039-1.332,2.512-2.415,3.391a10.711,10.711,0,0,1-2.256,1.141,3,3,0,0,0-1.752,1.724,5.336,5.336,0,0,0,.494,2.771,11.475,11.475,0,0,1,.3,2.934c.018,1.2.037,2.4.016,3.6a10.426,10.426,0,0,1-1.18,5.416,42.03,42.03,0,0,0,11.162,1.443,11.26,11.26,0,0,0,2.168-.055,18.6,18.6,0,0,0,1.847-.467,14.162,14.162,0,0,1,3.68-.471,6.18,6.18,0,0,0,1.616-.108,1.6,1.6,0,0,0,1.166-1.025,1.9,1.9,0,0,0-.3-1.39c-.437-.769-1.058-1.411-1.528-2.17a5.963,5.963,0,0,1-.383-5.361c.416-.969,1.087-1.812,1.5-2.782a5.868,5.868,0,0,0-1.182-6.224,9.346,9.346,0,0,0-5.421-2.322,4.923,4.923,0,0,1-2.283-.882,3.907,3.907,0,0,0-2.6-.5A4.245,4.245,0,0,0,430.405,279.433Z" transform="translate(-351.289 -232.276)" fill="#3f3d56"/>
    <g id="Grupo_54" data-name="Grupo 54" transform="translate(72.391 52.953)" opacity="0.1">
      <path id="Caminho_222" data-name="Caminho 222" d="M531.894,323.272a5.869,5.869,0,0,0-.45,2.694,5.768,5.768,0,0,1,.45-1.912c.415-.969,1.085-1.812,1.494-2.782a5.629,5.629,0,0,0,.411-2.562,5.485,5.485,0,0,1-.411,1.782C532.979,321.462,532.309,322.3,531.894,323.272Z" transform="translate(-512.48 -318.71)"/>
      <path id="Caminho_223" data-name="Caminho 223" d="M426.495,326.438c.011.692.021,1.385.023,2.076q0-1.429-.023-2.854a11.449,11.449,0,0,0-.3-2.936,14.537,14.537,0,0,1-.529-1.824,6.115,6.115,0,0,0,.529,2.6A11.4,11.4,0,0,1,426.495,326.438Z" transform="translate(-425.348 -320.514)"/>
      <path id="Caminho_224" data-name="Caminho 224" d="M444.472,396.4a5.964,5.964,0,0,1-1.614.108,14.153,14.153,0,0,0-3.678.462,18.723,18.723,0,0,1-1.847.466,11.147,11.147,0,0,1-2.17.056,43.635,43.635,0,0,1-10.8-1.335,5.984,5.984,0,0,1-.353.67,42.1,42.1,0,0,0,11.16,1.443,11.143,11.143,0,0,0,2.17-.056,18.254,18.254,0,0,0,1.84-.464,14.152,14.152,0,0,1,3.671-.468,6.09,6.09,0,0,0,1.614-.109,1.6,1.6,0,0,0,1.166-1.023,1.4,1.4,0,0,0-.018-.734A1.647,1.647,0,0,1,444.472,396.4Z" transform="translate(-424.01 -381.887)"/>
    </g>
    <path id="Caminho_225" data-name="Caminho 225" d="M454.012,340.69c-.131.293-.681,2.823-.811,3.082s-.843,4.41-.909,4.643-4.7-.974-4.7-.974L444.8,345.1l-2.867-2.853s-.085-2.574,2.027-3.4a3.227,3.227,0,0,1,.441-.138c2.562-.616,2.3-8.4,2.3-8.4l5.257,2.27a54.467,54.467,0,0,0-.94,5.421c.009.295.24.478.542.589a4.282,4.282,0,0,0,1.436.155S454.142,340.4,454.012,340.69Z" transform="translate(-366.383 -275.31)" fill="#fbbebe"/>
    <path id="Caminho_226" data-name="Caminho 226" d="M531.305,435.718l.746.2s.552.84-.746,1.621a22.486,22.486,0,0,0-2.369,1.657L525.1,440.36l-.739-2.32,3.571-2.71Z" transform="translate(-434.265 -361.803)" fill="#ea4d00"/>
    <path id="Caminho_227" data-name="Caminho 227" d="M531.305,435.718l.746.2s.552.84-.746,1.621a22.486,22.486,0,0,0-2.369,1.657L525.1,440.36l-.739-2.32,3.571-2.71Z" transform="translate(-434.265 -361.803)" opacity="0.1"/>
    <path id="Caminho_228" data-name="Caminho 228" d="M398.032,448.262l-1.492,1.461s2.692,3.115,4.763,3.31,3.407-2.369,3.407-2.369l-1.792-2.823Z" transform="translate(-328.995 -372.106)" fill="#ea4d00"/>
    <path id="Caminho_229" data-name="Caminho 229" d="M398.032,448.262l-1.492,1.461s2.692,3.115,4.763,3.31,3.407-2.369,3.407-2.369l-1.792-2.823Z" transform="translate(-328.995 -372.106)" opacity="0.1"/>
    <circle id="Elipse_19" data-name="Elipse 19" cx="5.192" cy="5.192" r="5.192" transform="translate(78.023 49.706)" opacity="0.1"/>
    <circle id="Elipse_20" data-name="Elipse 20" cx="5.192" cy="5.192" r="5.192" transform="translate(78.023 49.316)" fill="#fbbebe"/>
    <path id="Caminho_230" data-name="Caminho 230" d="M440.9,561.709a16.763,16.763,0,0,0-3.474.778c-1.941.646-17.148.011-17.359,0V561.9l.744-1.849,8.821-1.1h4.22s6.351,1.492,7.007,2.136C440.889,561.474,440.9,561.709,440.9,561.709Z" transform="translate(-348.374 -463.615)" opacity="0.1"/>
    <path id="Caminho_231" data-name="Caminho 231" d="M454.012,379.349c-.131.293-.681,2.823-.811,3.082s-.843,4.41-.909,4.643-4.7-.974-4.7-.974l-2.789-2.337-2.867-2.853s-.085-2.574,2.027-3.4l5.243,6.028,2.36-6.289a4.281,4.281,0,0,0,1.436.155S454.142,379.058,454.012,379.349Z" transform="translate(-366.383 -313.969)" opacity="0.1"/>
    <path id="Caminho_232" data-name="Caminho 232" d="M425.12,382.473l-5.367-6.175a2.249,2.249,0,0,0-2.129-.157c-1.2.52-2.694.942-3.084,1.2a24.058,24.058,0,0,0-1.851,1.865l4.35,11.38-1.916,7.5s.293,3.83-.453,5.225a5.735,5.735,0,0,0-.617,2.888,10.03,10.03,0,0,1-.032,2.823,4.7,4.7,0,0,0-.034,1.979s15.417.649,17.363,0a16.614,16.614,0,0,1,3.474-.778s-.353-6.492-.706-8.05.293-7.5.293-7.5l-.422-6.362,2.53-6.527s-1.371-4.185-2.8-4.606a27.746,27.746,0,0,1-3.147-.909,11.035,11.035,0,0,0-2.175-.552l-.852.286Z" transform="translate(-342.296 -312.709)" fill="#ea4d00"/>
    <rect id="Retângulo_274" data-name="Retângulo 274" width="12.356" height="18.908" rx="2.94" transform="translate(78.502 74.587) rotate(3.89)" opacity="0.1"/>
    <rect id="Retângulo_275" data-name="Retângulo 275" width="12.356" height="18.908" rx="2.94" transform="translate(78.891 74.2) rotate(3.89)" fill="#3f3d56"/>
    <rect id="Retângulo_276" data-name="Retângulo 276" width="10.765" height="16.269" transform="translate(79.589 75.671) rotate(3.89)" fill="#fff"/>
    <rect id="Retângulo_277" data-name="Retângulo 277" width="8.795" height="2.451" transform="translate(80.592 79.93) rotate(4.004)" opacity="0.1"/>
    <rect id="Retângulo_278" data-name="Retângulo 278" width="1.395" height="1.277" transform="translate(87.656 90.166) rotate(3.89)" opacity="0.1"/>
    <rect id="Retângulo_279" data-name="Retângulo 279" width="7.143" height="1.277" transform="translate(80.548 86.701) rotate(3.89)" opacity="0.1"/>
    <rect id="Retângulo_280" data-name="Retângulo 280" width="7.438" height="1.963" transform="translate(81.579 75.289) rotate(3.89)" fill="#3f3d56"/>
    <rect id="Retângulo_281" data-name="Retângulo 281" width="7.438" height="1.963" transform="translate(81.579 75.289) rotate(3.89)" opacity="0.1"/>
    <path id="Caminho_233" data-name="Caminho 233" d="M474.707,572.56s-.065,9.608-2.6,15.124c0,0,3.052-7.27,3.052-7.561s1.687-3.343,1.235-4.252S474.707,572.56,474.707,572.56Z" transform="translate(-391.233 -474.824)" opacity="0.1"/>
    <path id="Caminho_234" data-name="Caminho 234" d="M458.462,294.668a3.611,3.611,0,0,1,.587-2.419,2.98,2.98,0,0,0,2.3,3.14.39.39,0,0,1-.111-.427,13.07,13.07,0,0,0,1.048,1.254,1.393,1.393,0,0,0,1.5.319c.655-.353.662-1.283.492-2.006a9.42,9.42,0,0,0-2.168-4.14,2.868,2.868,0,0,0-2.276-1.157,5.6,5.6,0,0,0-2.941.46,7.815,7.815,0,0,0-1.411.986l-2.47,2.015a2.344,2.344,0,0,0-.6.632,1.728,1.728,0,0,0-.187.662,3.565,3.565,0,0,0,1.662,3.364,2.63,2.63,0,0,1,1.575-2.47.685.685,0,0,1,.245.51l.52-.928a1.021,1.021,0,0,1,.353-.418.921.921,0,0,1,.995.28,1.776,1.776,0,0,0,.907.6l.014-1.381" transform="translate(-374.85 -241.459)" opacity="0.1"/>
    <path id="Caminho_235" data-name="Caminho 235" d="M458.495,293.567a3.613,3.613,0,0,1,.587-2.42,2.981,2.981,0,0,0,2.306,3.14.386.386,0,0,1-.111-.425,13.278,13.278,0,0,0,1.048,1.254,1.385,1.385,0,0,0,1.5.318c.655-.353.662-1.283.492-2a9.421,9.421,0,0,0-2.168-4.14,3.47,3.47,0,0,0-1.212-.942,3.529,3.529,0,0,0-1.059-.215,5.6,5.6,0,0,0-2.941.459,7.915,7.915,0,0,0-1.411.988l-2.47,2.015a2.32,2.32,0,0,0-.6.632,1.72,1.72,0,0,0-.187.662,3.564,3.564,0,0,0,1.662,3.362,2.634,2.634,0,0,1,1.575-2.47.69.69,0,0,1,.245.51l.519-.924a1.01,1.01,0,0,1,.353-.418.921.921,0,0,1,.995.28,1.787,1.787,0,0,0,.907.6l.014-1.383" transform="translate(-374.883 -240.552)" fill="#3f3d56"/>
    <path id="Caminho_236" data-name="Caminho 236" d="M428.383,457.844c-.453-.229-7.951.94-7.951.94a42.916,42.916,0,0,0-4.22-.843,3.785,3.785,0,0,1-3.175-3.408l-.326-5.841,1.007-.882,4.315,2.823a13.939,13.939,0,0,1,0,1.685,2.378,2.378,0,0,0-.145.529.176.176,0,0,0,.145.159c.293.074,4.283.72,4.283.72s9.249-.633,11.555,2.482a2.342,2.342,0,0,1,.408.769C434.85,459.106,428.794,458.047,428.383,457.844Z" transform="translate(-342.312 -372.081)" fill="#fbbebe"/>
    <path id="Caminho_237" data-name="Caminho 237" d="M457.816,480.56c-.353.157-.572.27-.572.27a21.5,21.5,0,0,1-5.169-.771,12.142,12.142,0,0,0-4.119-.554s-7.748-1.334-6.547-3.075a.176.176,0,0,0,.145.159c.293.074,4.283.72,4.283.72s9.249-.633,11.555,2.482A2.342,2.342,0,0,1,457.816,480.56Z" transform="translate(-365.844 -395.652)" opacity="0.1"/>
    <path id="Caminho_238" data-name="Caminho 238" d="M461.061,441.58s.455,3.213.487,3.474a20.794,20.794,0,0,1,0,3.765c-.2.358-.487.94-.487.94s.325.681-.974.942a13.326,13.326,0,0,0-2.823,1.037,21.156,21.156,0,0,1-5.16-.778,11.907,11.907,0,0,0-4.121-.552s-9.835-1.688-5.615-3.749a6.494,6.494,0,0,1,7.2.73l4.7-.291s1.754-1.073,2.24-.974a1.8,1.8,0,0,0,1.006-.162l.034-3.408Z" transform="translate(-365.871 -366.95)" fill="#fbbebe"/>
    <path id="Caminho_239" data-name="Caminho 239" d="M400.276,396.649l-.942-.049-2.854,11.114s3.082-.78,4.41,0a10.7,10.7,0,0,0,3.765.94l-.909-8.86Z" transform="translate(-328.945 -329.906)" opacity="0.1"/>
    <path id="Caminho_240" data-name="Caminho 240" d="M400.276,395.539l-.942-.049L396.48,406.6s3.082-.78,4.41,0a10.7,10.7,0,0,0,3.765.94l-.909-8.86Z" transform="translate(-328.945 -328.991)" fill="#ea4d00"/>
    <path id="Caminho_241" data-name="Caminho 241" d="M530.654,409.57l1.3.293s3.311,4.763,3.571,5.03-1.235,1.235-1.851,1.235-3.634.353-4.511,1.168-.512-3.287-.512-3.38,1.088-2.682,1.088-2.682Z" transform="translate(-437.735 -340.587)" opacity="0.1"/>
    <path id="Caminho_242" data-name="Caminho 242" d="M530.654,408.47l1.3.291s3.311,4.772,3.571,5.031-1.235,1.235-1.851,1.235-3.634.353-4.511,1.168-.512-3.287-.512-3.38,1.1-2.69,1.1-2.69Z" transform="translate(-437.735 -339.682)" fill="#ea4d00"/>
    <g id="Grupo_55" data-name="Grupo 55" transform="translate(77.374 50.205)" opacity="0.1">
      <path id="Caminho_243" data-name="Caminho 243" d="M459.072,303.536a2.6,2.6,0,0,1,.009-.406,3.611,3.611,0,0,0-.543,1.332v.492c0,.286,0,.573-.009.859H458.5v.132a.7.7,0,0,0-.009-.136,1.877,1.877,0,0,1-.868-.589c-.263-.236-.674-.462-.995-.281a1.011,1.011,0,0,0-.353.418l-.524.924a.683.683,0,0,0-.245-.508,2.63,2.63,0,0,0-1.575,2.47,3.585,3.585,0,0,1-1.674-2.81,3.567,3.567,0,0,0,1.674,3.2,2.634,2.634,0,0,1,1.575-2.47.69.69,0,0,1,.245.51l.519-.924a1.011,1.011,0,0,1,.353-.418.921.921,0,0,1,.995.281,1.787,1.787,0,0,0,.907.6q0-.677.014-1.351A3.594,3.594,0,0,1,459.072,303.536Z" transform="translate(-452.256 -303.13)"/>
      <path id="Caminho_244" data-name="Caminho 244" d="M487.492,311.58c.009-.12.023-.24.041-.353l.019-.487A3.571,3.571,0,0,0,487.492,311.58Z" transform="translate(-481.272 -309.397)"/>
      <path id="Caminho_245" data-name="Caminho 245" d="M505.824,320.092a1.389,1.389,0,0,1-1.5-.318,13.058,13.058,0,0,1-1.048-1.254.39.39,0,0,0,.111.427.415.415,0,0,1-.1-.026,11.651,11.651,0,0,0,1.039,1.235,1.4,1.4,0,0,0,1.5.318,1.442,1.442,0,0,0,.577-1.448A1.225,1.225,0,0,1,505.824,320.092Z" transform="translate(-494.253 -315.805)"/>
      <path id="Caminho_246" data-name="Caminho 246" d="M493.077,308.532a3,3,0,0,1-2.2-2.622,2.98,2.98,0,0,0,2.311,3.04A.388.388,0,0,1,493.077,308.532Z" transform="translate(-484.06 -305.42)"/>
    </g>
    <path id="Caminho_247" data-name="Caminho 247" d="M808.1,302.975s-.7-.1-.7-1.108a15.9,15.9,0,0,0-.5-2.9h0s-.43-3.294-1.025-3.816-1.358-3.588-1.358-3.588a7.235,7.235,0,0,0-.4-2.022,17.178,17.178,0,0,1-1.157-2.486c-.531-1.251-2.74-2.108-2.74-2.108s-4-2.322-5.137-3.078h0a1.751,1.751,0,0,1-.289-.219c-.2-.258-1.059-.263-1.059-.263a17.41,17.41,0,0,1-.2-1.814v-.191a6.1,6.1,0,0,0,2.683-3.32c.021-.067.039-.136.058-.2a.574.574,0,0,0,.353-.311,6.22,6.22,0,0,1,.231-.706,2.615,2.615,0,0,1,.653-.572,2.474,2.474,0,0,0,.679-2.009c-.018-.593-.113-1.189-.076-1.777a.7.7,0,0,1,.01-.148c.011-.086.023-.176.039-.261.086-.437.275-.85.381-1.284a1.652,1.652,0,0,0-.131-1.3,2.219,2.219,0,0,0-1.777-.706c-.75-.064-1.411.018-1.9-.605a6.654,6.654,0,0,0-.755-.91c-.1-.092-1.058-.679-1.058-.716a4.289,4.289,0,0,0-3-.231c-.5.145-.967.381-1.473.5-1.087.258-2.339-.021-3.264.6a3.851,3.851,0,0,0-1.113,1.461q-.353.674-.716,1.35a8.683,8.683,0,0,0-.951,2.309,3.9,3.9,0,0,0-.065.542h0v.281a.97.97,0,0,0,.011.176.99.99,0,0,0,.012.109c.012.037.016.12.026.176s.032.157.053.233a.357.357,0,0,0,.032.1c.011.034.039.118.062.176s.025.062.039.092a1.638,1.638,0,0,0,.09.176c.014.023.025.046.039.069a2,2,0,0,0,.162.236c.376.471.933.771,1.344,1.212v.2a6.039,6.039,0,0,0,2.766,4.922c0,.067.009.136.012.2a10.063,10.063,0,0,1-.019,1.57.744.744,0,0,0-.586-.261.841.841,0,0,0-.226.019l-.016-.012h0v.016c-.388.1-.866.5-1.323,1.648,0,0-1.39,1.567-2.449,1.5s-3.738,1.632-3.738,1.632-2.614,1.7-3.175,3.424a23.925,23.925,0,0,1-1.127,2.872l-3.241,6.654h0L770.5,303.8a24.493,24.493,0,0,1,.265,2.708,25.982,25.982,0,0,0,1.357,3.588s4.7,8.253,6.617,8.676l.138-.1a1.2,1.2,0,0,0,.259.1l.4-.277a4.124,4.124,0,0,1-.032.93,24.609,24.609,0,0,0,.563,7.177c.462,1.043.3,14.715.3,14.715l-.065,1.2a.512.512,0,0,0,.016.106l-.016.286.048.025a3.41,3.41,0,0,1-.048,1.15,12.755,12.755,0,0,0-.233,2.023s-1.323,8.447-.7,10.144,1.159,3.557,1.159,3.557.662,2.117.032,2.47-2.413.979-2.05,1.859c.335.815,1.607,3,1.8,3.318l-.016.176-.259,2.81a3.53,3.53,0,0,0,.3,1.073,1.845,1.845,0,0,0,1.886,1.178c.176-.012.379-.032.579-.058a25.068,25.068,0,0,0,4.285-1.117,1.691,1.691,0,0,1-.333-.277h0a.969.969,0,0,1-.295-.706,20.541,20.541,0,0,0-1.17-3.551l-.055-.134s2.184-2.285,1.821-4.306c0,0-2.417-1.411-1.621-2.188a24.79,24.79,0,0,0,2.218-3s.065-8.318,0-9.558a10.3,10.3,0,0,1,.122-2.583c.026-.127.058-.252.092-.378a22.538,22.538,0,0,0,3.327.252q.61,0,1.235-.025,0,.176.016.381c.092,2.061.263,5.675.4,7.018.2,1.923,1.29,7.111,1.29,7.111s-2.083,1.335.363,4.633a4.474,4.474,0,0,1-.162,1.367h0a14.918,14.918,0,0,0-.418,1.724,3.03,3.03,0,0,0,.021,1.574c.4.78,2.779.716,2.779.716h0a.375.375,0,0,1,.058-.009,3.4,3.4,0,0,1,2.521.759c.905.727,4.338.409,6.2.176.729-.094,1.215-.176,1.215-.176a.713.713,0,0,0,.025-.254h0c-.019-.457-.377-1.459-2.8-2.353,0,0-2.283-1.535-2.251-2.872h-.314c.166-.005.282-.005.282-.005s-.894-3.262-.529-3.528-.729-3.881-.729-3.881-.626-6.069-.662-6.492a3.732,3.732,0,0,1,.166-1.076l-.166-3.329s-.032-1.106,0-1.466a6.893,6.893,0,0,0-.074-.933c-.016-.123-.032-.252-.049-.379.856-.217,1.411-.416,1.411-.416l-.1-11.582c.727-1.411.861-4.509.857-6.7,0-1.411-.064-2.456-.064-2.456l.993-1.621s.229-1.941-.134-2.366a.407.407,0,0,1,.044-.556,1.846,1.846,0,0,1,.22-.155.271.271,0,0,1-.023-.039,1.749,1.749,0,0,1,.22-.157s-.353-.547-.037-.778c.3.2.561.362.762.476-.014.129-.028.2-.028.2l.085-.176.312.176a23.631,23.631,0,0,0,1.522-3.555,10.406,10.406,0,0,1,1.058-2.382,2.386,2.386,0,0,1,.729-1.436c.6-.423.462-3.491.462-3.491a7.5,7.5,0,0,1,.563-2.249C808.847,303.861,808.1,302.975,808.1,302.975Zm-29.772-1.36.03.739c-.176-.284-.3-.487-.3-.487Z" transform="translate(-636.982 -220.825)" fill="url(#linear-gradient-2)"/>
    <path id="Caminho_248" data-name="Caminho 248" d="M942.408,537.973l-.381,1.623s-3.052-1.561-3.6-3.537a2.241,2.241,0,0,1,.919-2.729l2.846,1.2Z" transform="translate(-775.183 -442.514)" fill="#fff"/>
    <path id="Caminho_249" data-name="Caminho 249" d="M942.408,537.973l-.381,1.623s-3.052-1.561-3.6-3.537a2.241,2.241,0,0,1,.919-2.729l2.846,1.2Z" transform="translate(-775.183 -442.514)" opacity="0.1"/>
    <path id="Caminho_250" data-name="Caminho 250" d="M832.237,842.8a21.933,21.933,0,0,1-4.763,1.168,1.812,1.812,0,0,1-1.851-1.171,3.586,3.586,0,0,1-.293-1.058l.256-2.8.134-1.487,4.123-1.073.584,1.787.055.134a20.867,20.867,0,0,1,1.147,3.528.969.969,0,0,0,.288.706A1.642,1.642,0,0,0,832.237,842.8Z" transform="translate(-682.14 -692.102)" fill="#fff"/>
    <path id="Caminho_251" data-name="Caminho 251" d="M914.6,840.47a.706.706,0,0,1-.025.254s-6.037,1.005-7.272,0a3.269,3.269,0,0,0-2.533-.746s-2.336.063-2.726-.706a3.057,3.057,0,0,1-.019-1.565,15.01,15.01,0,0,1,.409-1.715l.094-.074.556-.446,6.506-.192h.049c-.032,1.33,2.207,2.856,2.207,2.856C914.229,839.018,914.58,840.015,914.6,840.47Z" transform="translate(-745.231 -691.196)" fill="#fff"/>
    <path id="Caminho_252" data-name="Caminho 252" d="M914.6,851.794a.726.726,0,0,1-.026.254s-6.037,1.005-7.27,0a3.269,3.269,0,0,0-2.535-.746s-2.337.063-2.727-.706a3.081,3.081,0,0,1-.019-1.567,5.8,5.8,0,0,1,2.877.85,6.42,6.42,0,0,0,3.147,1.688C908.734,851.611,912.846,851.741,914.6,851.794Z" transform="translate(-745.226 -702.52)" opacity="0.1"/>
    <path id="Caminho_253" data-name="Caminho 253" d="M833.6,871.5a21.928,21.928,0,0,1-4.763,1.168,1.812,1.812,0,0,1-1.851-1.171,3.855,3.855,0,0,0,2.24.263,19.842,19.842,0,0,1,4.058-.529A1.6,1.6,0,0,0,833.6,871.5Z" transform="translate(-683.507 -720.804)" opacity="0.1"/>
    <path id="Caminho_254" data-name="Caminho 254" d="M866.31,349.447c-2.329-.9-5.324-3.9-4.576-5.292a3.164,3.164,0,0,0,.291-1.122,10.252,10.252,0,0,0,.021-1.588,21.838,21.838,0,0,0-.312-2.584s7.27.164,6.847,1.235a3.973,3.973,0,0,0-.109,1.47c.035.609.122,1.3.214,1.886.125.8.254,1.411.254,1.411s-.446.623-.706.656S869.652,350.743,866.31,349.447Z" transform="translate(-712.025 -282.352)" fill="#cf6f80"/>
    <path id="Caminho_255" data-name="Caminho 255" d="M831.635,838.251l-.055.06c-2.173-2.629-4.8.649-4.8.649l-.039-.071.134-1.487L831,836.33l.584,1.787Z" transform="translate(-683.301 -692.061)" opacity="0.1"/>
    <path id="Caminho_256" data-name="Caminho 256" d="M911.992,835.432a4.182,4.182,0,0,0-2.435.716c-.847.748-4.94.161-4.763,0a.61.61,0,0,0,.092-.27l.556-.446,6.506-.192C911.972,835.363,911.992,835.432,911.992,835.432Z" transform="translate(-747.581 -691.163)" opacity="0.1"/>
    <path id="Caminho_257" data-name="Caminho 257" d="M825.949,703.054a4.957,4.957,0,0,0-.268.905,10.361,10.361,0,0,0-.122,2.569c.065,1.235,0,9.51,0,9.51a25.179,25.179,0,0,1-2.175,2.985c-.78.778,1.588,2.175,1.588,2.175.353,2.013-1.785,4.285-1.785,4.285-2.173-2.629-4.8.647-4.8.647s-1.429-2.47-1.785-3.352,1.4-1.491,2.011-1.851-.032-2.47-.032-2.47-.519-1.851-1.136-3.539.681-10.091.681-10.091a13.044,13.044,0,0,1,.228-2.015,3.413,3.413,0,0,0,.048-1.143c-.011-.129-.023-.235-.032-.309s-.016-.106-.016-.106l.025-.042.882-1.644S826.372,702.019,825.949,703.054Z" transform="translate(-674.91 -579.427)" fill="#ea4d00"/>
    <path id="Caminho_258" data-name="Caminho 258" d="M903.09,731.6a4.212,4.212,0,0,0-2.435.706c-.847.739-4.94.162-4.763,0s.161-1.362.161-1.362c-2.4-3.28-.353-4.61-.353-4.61s-1.071-5.16-1.265-7.074c-.136-1.336-.3-4.94-.393-6.981-.039-.882-.062-1.491-.062-1.491l1.944-.386.252-.049,4.731-.951s.131.882.219,1.6a7.053,7.053,0,0,1,.072.93c-.03.353,0,1.459,0,1.459l.162,3.31a3.819,3.819,0,0,0-.162,1.071c.034.423.649,6.459.649,6.459s1.071,3.6.706,3.862S903.09,731.6,903.09,731.6Z" transform="translate(-738.679 -587.523)" fill="#ea4d00"/>
    <path id="Caminho_259" data-name="Caminho 259" d="M869.127,340.125a3.972,3.972,0,0,0-.109,1.47,6.042,6.042,0,0,1-6.425-.12,21.813,21.813,0,0,0-.312-2.584S869.55,339.054,869.127,340.125Z" transform="translate(-712.571 -282.376)" opacity="0.1"/>
    <path id="Caminho_260" data-name="Caminho 260" d="M860.65,295.627a6.036,6.036,0,1,1-12.07.145v-.145a6.037,6.037,0,1,1,12.074,0Z" transform="translate(-701.288 -241.774)" fill="#cf6f80"/>
    <path id="Caminho_261" data-name="Caminho 261" d="M866.31,368.924c-2.329-.905-5.324-3.9-4.576-5.292a3.164,3.164,0,0,0,.291-1.122l3.188,2.622,1.972,1.618,1.5-3.816c.125.8.254,1.411.254,1.411s-.446.623-.706.656S869.652,370.221,866.31,368.924Z" transform="translate(-712.025 -301.83)" opacity="0.1"/>
    <path id="Caminho_262" data-name="Caminho 262" d="M848.386,360.673l-2.662,44.721-3.472.228-8.992-25.931,1.475-30.786.312-6.5,4,3.283,1.972,1.618,1.544-3.929,2.87,2.5Z" transform="translate(-685.857 -281.993)" fill="#ea4d00"/>
    <path id="Caminho_263" data-name="Caminho 263" d="M834.332,703.12a4.95,4.95,0,0,0-.268.905,25.581,25.581,0,0,1-7.286-2.274l-.048-.025.016-.284v-.148l.882-1.644S834.755,702.084,834.332,703.12Z" transform="translate(-683.293 -579.493)" opacity="0.1"/>
    <path id="Caminho_264" data-name="Caminho 264" d="M895.933,716.732a17.884,17.884,0,0,1-1.951.224c-.039-.882-.062-1.491-.062-1.491l1.955-.4Z" transform="translate(-738.63 -592.193)" opacity="0.1"/>
    <path id="Caminho_265" data-name="Caminho 265" d="M911.42,711a13.7,13.7,0,0,1-4.925.464l-.025-1.117,4.732-.951S911.327,710.275,911.42,711Z" transform="translate(-748.966 -587.523)" opacity="0.1"/>
    <path id="Caminho_266" data-name="Caminho 266" d="M799.619,424.642c-7.233,1.235-13.857-2.306-13.857-2.306l.063-1.2s.164-13.6-.291-14.642a24.725,24.725,0,0,1-.552-7.129c.258-.806-.94-12.979-.94-12.979l-.194-4.94-7.108-2.888,3.175-6.621a23.914,23.914,0,0,0,1.1-2.858c.552-1.72,3.115-3.408,3.115-3.408s2.629-1.687,3.668-1.623,2.4-1.492,2.4-1.492c1.005-2.563,1.916-1.411,1.916-1.411a2.266,2.266,0,0,1-.049.379c-.353,2.814,5.705,11.705,5.792,11.864h0l.584,14.053.584,17.784Z" transform="translate(-642.122 -300.493)" opacity="0.1"/>
    <path id="Caminho_267" data-name="Caminho 267" d="M798.495,424.642c-7.233,1.235-13.859-2.306-13.859-2.306l.065-1.2s.162-13.6-.293-14.642a24.723,24.723,0,0,1-.55-7.141c.259-.813-.946-12.974-.946-12.974l-.2-4.94-7.106-2.888,3.175-6.621a24.3,24.3,0,0,0,1.1-2.856c.552-1.715,3.124-3.4,3.124-3.4s2.629-1.687,3.666-1.623,2.406-1.491,2.406-1.491c1.007-2.563,2.117-1.411,2.117-1.411,0,.123-.106.176-.049.379.776,2.729,5.511,11.705,5.6,11.864h0l.584,14.053.572,17.793Z" transform="translate(-641.191 -300.493)" fill="#fff"/>
    <path id="Caminho_268" data-name="Caminho 268" d="M863.173,375.665c-.778-.325-4.9-5.03-4.9-5.03v-1.071c-.15-.353-1.043-.138-1.764.109l.31-6.5.353.293C857.944,366.19,863.088,375.508,863.173,375.665Z" transform="translate(-707.819 -302.373)" opacity="0.1"/>
    <path id="Caminho_269" data-name="Caminho 269" d="M864.275,373.49c-.78-.326-4.9-5.03-4.9-5.03v-1.073c-.15-.353-1.041-.138-1.764.109l.305-6.5.353.291C859.046,364.015,864.188,373.331,864.275,373.49Z" transform="translate(-708.725 -300.586)" fill="#fff"/>
    <path id="Caminho_270" data-name="Caminho 270" d="M826.027,562.379c.1,0,5.03-.519,5.03-.519s2.987,5.875,2.791,7.3-.55,2.694-1.752,2.47a53.31,53.31,0,0,0-6.466.176Z" transform="translate(-682.387 -466.011)" opacity="0.1"/>
    <path id="Caminho_271" data-name="Caminho 271" d="M824.917,560.169c.1,0,5.031-.519,5.031-.519s2.985,5.883,2.791,7.295-.552,2.694-1.752,2.47a53.379,53.379,0,0,0-6.467.176Z" transform="translate(-681.473 -464.191)" fill="#fff"/>
    <path id="Caminho_272" data-name="Caminho 272" d="M835.247,547s4.527,2.434,4.624,3.175-2.3-.325-2.823-.455a6.724,6.724,0,0,0-1.039-.162l-3.459.094Z" transform="translate(-688.086 -453.773)" fill="#cf6f80"/>
    <circle id="Elipse_21" data-name="Elipse 21" cx="0.476" cy="0.476" r="0.476" transform="translate(153.613 72.643)" opacity="0.1"/>
    <circle id="Elipse_22" data-name="Elipse 22" cx="0.476" cy="0.476" r="0.476" transform="translate(153.613 72.449)" fill="#3f3d56"/>
    <circle id="Elipse_23" data-name="Elipse 23" cx="0.476" cy="0.476" r="0.476" transform="translate(154.49 93.262)" opacity="0.1"/>
    <circle id="Elipse_24" data-name="Elipse 24" cx="0.476" cy="0.476" r="0.476" transform="translate(154.49 93.067)" fill="#3f3d56"/>
    <circle id="Elipse_25" data-name="Elipse 25" cx="0.476" cy="0.476" r="0.476" transform="translate(154.089 82.953)" opacity="0.1"/>
    <circle id="Elipse_26" data-name="Elipse 26" cx="0.476" cy="0.476" r="0.476" transform="translate(154.089 82.759)" fill="#3f3d56"/>
    <path id="Caminho_273" data-name="Caminho 273" d="M910.541,399.394s.325.487,0,.706.032.78.032.78-.81.473-.453.9.13,2.353.13,2.353l-.974,1.621s.058,1.039.062,2.443c0,2.191-.129,5.271-.841,6.676l.1,11.522a15.648,15.648,0,0,1-6.265.866l-.423-18.488s.617-10.484.845-12.5a20.935,20.935,0,0,0,.162-3.149,35.149,35.149,0,0,0-.423-4.606s-.353-6.33-.388-8.082c-.016-.838.028-3.283.078-5.608.055-2.542.116-4.94.116-4.94l-.644-5.1s.644-.064.838.194a1.857,1.857,0,0,0,.282.217h0c1.113.751,5.04,3.063,5.04,3.063s2.173.864,2.694,2.1a18.333,18.333,0,0,0,1.134,2.47,7.624,7.624,0,0,1,.39,2.011s.748,3.052,1.332,3.569,1,3.8,1,3.8l-5.16,4.058s-.453,6.75-.55,7.011S910.541,399.394,910.541,399.394Z" transform="translate(-744.996 -303.708)" fill="#fff"/>
    <path id="Caminho_274" data-name="Caminho 274" d="M910.712,399.105s.323.487,0,.706.03.78.03.78-.81.473-.453.9.13,2.353.13,2.353l-.97,1.621s.058,1.039.063,2.443c0,2.191-.129,5.271-.841,6.676l.1,11.522a15.647,15.647,0,0,1-6.264.866l-.422-18.488s.616-10.484.845-12.5a20.734,20.734,0,0,0,.161-3.149,35.361,35.361,0,0,0-.422-4.606s-.353-6.33-.39-8.082c-.016-.838.028-3.283.078-5.608.055-2.542.116-4.94.116-4.94l-.85-5.165s.85,0,1.046.263a1.673,1.673,0,0,0,.282.217h0c1.111.752,5.038,3.063,5.038,3.063s2.168.864,2.7,2.1a19.556,19.556,0,0,0,1.134,2.47,7.625,7.625,0,0,1,.39,2.011s.748,3.052,1.332,3.569,1.006,3.8,1.006,3.8l-5.16,4.058s-.453,6.75-.552,7.011S910.712,399.105,910.712,399.105Z" transform="translate(-744.971 -303.419)" fill="#fff"/>
    <path id="Caminho_275" data-name="Caminho 275" d="M905.43,372.915l.468,1.358-2.454,2.47c.055-2.542.116-4.94.116-4.94l-.85-5.164s.85,0,1.046.263a1.679,1.679,0,0,0,.282.217h0l2.085,6.014Z" transform="translate(-745.869 -305.231)" opacity="0.1"/>
    <path id="Caminho_276" data-name="Caminho 276" d="M904.3,370.689l.468,1.357-2.452,2.47c.053-2.542.116-4.94.116-4.94l-.852-5.165s.852,0,1.046.263a1.763,1.763,0,0,0,.282.217h0l2.1,6.019Z" transform="translate(-744.938 -303.394)" fill="#fff"/>
    <path id="Caminho_277" data-name="Caminho 277" d="M860.65,295.627a6.018,6.018,0,0,1-.3,1.872.25.25,0,0,1-.191-.046,7.805,7.805,0,0,0-1.789-4.349,4.605,4.605,0,0,0-.97-1.006,1.9,1.9,0,0,0-1.316-.372c-.529.072-1,.432-1.531.478-.706.058-1.337-.43-2.038-.453a2,2,0,0,0-1.5.7,4.086,4.086,0,0,0-.8,1.487,8.714,8.714,0,0,0-.448,2.569c-.009.494-.056,1.113-.515,1.293a2.629,2.629,0,0,0-.665-2.011l-.01-.012v-.145a6.037,6.037,0,1,1,12.074,0Z" transform="translate(-701.288 -241.774)" opacity="0.1"/>
    <path id="Caminho_278" data-name="Caminho 278" d="M848.547,267.634a4.157,4.157,0,0,0-2.932-.229c-.489.145-.949.379-1.445.5-1.058.256-2.293-.021-3.2.6a3.822,3.822,0,0,0-1.09,1.454l-.706,1.343a8.721,8.721,0,0,0-.933,2.293,2.934,2.934,0,0,0,.45,2.369c.372.473.926.771,1.332,1.217a2.646,2.646,0,0,1,.663,2.016c.459-.176.5-.8.515-1.293a8.725,8.725,0,0,1,.448-2.569,4.086,4.086,0,0,1,.8-1.487,2,2,0,0,1,1.5-.7c.706.025,1.339.513,2.038.453.529-.044,1-.4,1.531-.476a1.891,1.891,0,0,1,1.316.372,4.518,4.518,0,0,1,.969,1.006,7.773,7.773,0,0,1,1.791,4.349c.2.145.487-.046.586-.272a6.471,6.471,0,0,1,.228-.706,2.609,2.609,0,0,1,.639-.57,2.5,2.5,0,0,0,.667-2,9.955,9.955,0,0,1-.025-2.173c.083-.436.27-.847.372-1.279a1.672,1.672,0,0,0-.127-1.29,2.178,2.178,0,0,0-1.743-.706c-.736-.064-1.394.018-1.863-.6a6.9,6.9,0,0,0-.741-.907C849.488,268.255,848.547,267.673,848.547,267.634Z" transform="translate(-692.714 -223.366)" fill="#512e4e"/>
    <path id="Caminho_279" data-name="Caminho 279" d="M776.956,464.457l-1.842-3.407-.584,5.257a24.369,24.369,0,0,1,.259,2.694,25.9,25.9,0,0,0,1.33,3.569s4.61,8.212,6.492,8.634l6.351-4.544-1.687-2.142s-.584-.228-.73,0c0,0-3.133-5.388-3.456-5.776a1.963,1.963,0,0,1-.261-1.17s-.487-.519-.325-1.006-.931-2.173-.931-2.173l1.005-.94Z" transform="translate(-640.302 -382.986)" opacity="0.1"/>
    <path id="Caminho_280" data-name="Caminho 280" d="M773.391,458.84l-.487.39-.584,5.257a24.369,24.369,0,0,1,.259,2.694,25.9,25.9,0,0,0,1.332,3.569s4.608,8.212,6.49,8.634l6.362-4.544-1.688-2.142s-.584-.228-.73,0c0,0-3.131-5.388-3.456-5.776a1.943,1.943,0,0,1-.259-1.17s-.487-.519-.325-1.006-.942-2.173-.942-2.173l1.006-.94Z" transform="translate(-638.482 -381.165)" fill="#fff"/>
    <path id="Caminho_281" data-name="Caminho 281" d="M932.47,560.96c.353.429.131,2.355.131,2.355l-.974,1.611s.058,1.041.062,2.445l-1.637.512a.974.974,0,0,1-1.263-.96l.284-9.1,3.819,1.459c-.325.226.032.78.032.78S932.113,560.531,932.47,560.96Z" transform="translate(-767.346 -462.684)" opacity="0.1"/>
    <path id="Caminho_282" data-name="Caminho 282" d="M933.586,559.852c.353.427.131,2.353.131,2.353l-.97,1.612s.058,1.039.064,2.443l-1.667.52a.951.951,0,0,1-1.235-.937l.284-9.135,3.818,1.463c-.326.226.03.78.03.78S933.23,559.423,933.586,559.852Z" transform="translate(-768.268 -461.77)" fill="#fff"/>
    <path id="Caminho_283" data-name="Caminho 283" d="M943.672,543.268s-.259,1.656-.909,1.754-.94,2.68-1.588,2.59-.219-2.4-.2-2.851-.706-2.3-.162-2.726,2.272,0,2.272,0Z" transform="translate(-777.088 -449.529)" fill="#cf6f80"/>
    <path id="Caminho_284" data-name="Caminho 284" d="M941.873,466.07l1.222-2.47a15.981,15.981,0,0,1,.489,2.888c0,1.006.681,1.1.681,1.1s.746.882.353,1.526a7.384,7.384,0,0,0-.55,2.239s.129,3.05-.455,3.472a2.4,2.4,0,0,0-.714,1.429,10.354,10.354,0,0,0-1.037,2.369,23.525,23.525,0,0,1-1.492,3.537s.746-3.83-3.6-5.485c0,0-.034-1.3.291-1.655s.831-.529.513-2.322a21.04,21.04,0,0,1-.092-4.386,27.574,27.574,0,0,1,.974-3.126Z" transform="translate(-773.916 -385.086)" opacity="0.1"/>
    <path id="Caminho_285" data-name="Caminho 285" d="M944.27,461.6l1.069.353a15.982,15.982,0,0,1,.489,2.888c0,1.006.681,1.1.681,1.1s.746.882.353,1.526a7.4,7.4,0,0,0-.552,2.239s.131,3.05-.453,3.472a2.363,2.363,0,0,0-.706,1.429,10.351,10.351,0,0,0-1.037,2.369,23.526,23.526,0,0,1-1.494,3.537s.746-3.83-3.6-5.485c0,0-.032-1.3.293-1.655s.831-.529.513-2.322a21.044,21.044,0,0,1-.092-4.386,27.574,27.574,0,0,1,.974-3.126Z" transform="translate(-775.769 -383.439)" fill="#fff"/>
    <path id="Caminho_286" data-name="Caminho 286" d="M834.92,821.78s1.7-1.071,2.823-.293S834.92,821.78,834.92,821.78Z" transform="translate(-690.038 -679.603)" opacity="0.1"/>
    <path id="Caminho_287" data-name="Caminho 287" d="M910,805.656a3.45,3.45,0,0,1,2.775,1.17C914.042,808.189,910,805.656,910,805.656Z" transform="translate(-751.873 -666.79)" opacity="0.1"/>
    <g id="Grupo_56" data-name="Grupo 56" transform="translate(145.453 47.758)" opacity="0.1">
      <path id="Caminho_288" data-name="Caminho 288" d="M864.806,302.541c-.217.189-.5.321-.64.57a6.576,6.576,0,0,0-.226.706c-.1.228-.386.416-.587.272a7.8,7.8,0,0,0-1.789-4.349,4.511,4.511,0,0,0-.969-1,1.9,1.9,0,0,0-1.318-.374c-.529.072-1,.432-1.53.478-.706.058-1.339-.43-2.039-.453a1.99,1.99,0,0,0-1.5.7,4.086,4.086,0,0,0-.8,1.487,8.723,8.723,0,0,0-.448,2.569c-.011.492-.057,1.106-.512,1.29a2.446,2.446,0,0,1,0,.393c.46-.176.506-.8.517-1.293a8.722,8.722,0,0,1,.448-2.569,4.086,4.086,0,0,1,.8-1.487,2,2,0,0,1,1.5-.7c.706.025,1.341.513,2.039.453.529-.044,1-.4,1.529-.476a1.9,1.9,0,0,1,1.318.372,4.521,4.521,0,0,1,.968,1.006,7.782,7.782,0,0,1,1.789,4.349c.2.145.489-.046.588-.272a6.841,6.841,0,0,1,.226-.706,2.618,2.618,0,0,1,.64-.57,2.5,2.5,0,0,0,.667-2v-.067A2.32,2.32,0,0,1,864.806,302.541Z" transform="translate(-849.928 -296.749)"/>
      <path id="Caminho_289" data-name="Caminho 289" d="M840.008,308.962c-.4-.446-.958-.746-1.33-1.219a2.56,2.56,0,0,1-.513-1.443,2.719,2.719,0,0,0,.513,1.833c.372.473.926.771,1.33,1.217a2.646,2.646,0,0,1,.667,1.574A2.646,2.646,0,0,0,840.008,308.962Z" transform="translate(-838.155 -303.294)"/>
      <path id="Caminho_290" data-name="Caminho 290" d="M926.216,289.6c-.1.432-.289.843-.374,1.279a4.087,4.087,0,0,0-.055.893,3.434,3.434,0,0,1,.055-.5c.085-.436.27-.847.374-1.279a2.216,2.216,0,0,0,.058-.73A2.446,2.446,0,0,1,926.216,289.6Z" transform="translate(-910.324 -289.26)"/>
    </g>
    <ellipse id="Elipse_27" data-name="Elipse 27" cx="17.19" cy="2.761" rx="17.19" ry="2.761" transform="translate(6.629 142.472)" fill="#ea4d00" opacity="0.1"/>
    <rect id="Retângulo_282" data-name="Retângulo 282" width="1.106" height="24.904" transform="translate(23.267 92.342)" fill="#535461"/>
    <path id="Caminho_291" data-name="Caminho 291" d="M121.139,674.84l-.071,1.122-.1,1.588-.041.66-.1,1.588-.042.66-.1,1.588-1.117,18.007a3.048,3.048,0,0,1-3.043,2.861h-5.8a3.047,3.047,0,0,1-3.043-2.874l-1.117-18.007-.1-1.588-.041-.66-.1-1.588-.041-.66-.1-1.588-.071-1.122a1.588,1.588,0,0,1,1.577-1.678h11.859a1.588,1.588,0,0,1,1.575,1.69Z" transform="translate(-89.814 -557.668)" fill="#3f3d56"/>
    <path id="Caminho_292" data-name="Caminho 292" d="M105.452,670.52l-.1,1.584H90.679l-.1-1.584Z" transform="translate(-74.197 -552.228)" fill="#9d9cb5"/>
    <path id="Caminho_293" data-name="Caminho 293" d="M105.963,683.24l-.1,1.584h-14.4l-.1-1.584Z" transform="translate(-74.847 -562.704)" fill="#9d9cb5"/>
    <path id="Caminho_294" data-name="Caminho 294" d="M106.474,695.97l-.1,1.582H92.259l-.1-1.582Z" transform="translate(-75.498 -573.188)" fill="#9d9cb5"/>
    <path id="Caminho_295" data-name="Caminho 295" d="M30.652,571.922a28.715,28.715,0,0,1,9.126,11.95,28.712,28.712,0,0,1-14.207-4.927A28.737,28.737,0,0,1,16.44,567,28.7,28.7,0,0,1,30.652,571.922Z" transform="translate(-15.95 -470.245)" fill="#ea4d00"/>
    <path id="Caminho_296" data-name="Caminho 296" d="M16.44,567s8.057,4.472,10.641,8.175,12.69,8.7,12.69,8.7" transform="translate(-15.95 -470.245)" fill="none" stroke="#535461" stroke-miterlimit="10" stroke-width="2"/>
    <path id="Caminho_297" data-name="Caminho 297" d="M84.432,529.161a15.619,15.619,0,0,1,4.968,6.5,14.193,14.193,0,0,1-12.7-9.184A15.619,15.619,0,0,1,84.432,529.161Z" transform="translate(-65.579 -436.873)" fill="#ea4d00"/>
    <path id="Caminho_298" data-name="Caminho 298" d="M76.7,526.48s4.386,2.435,5.793,4.449,6.907,4.735,6.907,4.735" transform="translate(-65.579 -436.873)" fill="none" stroke="#535461" stroke-miterlimit="10" stroke-width="2"/>
    <path id="Caminho_299" data-name="Caminho 299" d="M154.79,550.222a21.605,21.605,0,0,0-4.88,10.211A19.636,19.636,0,0,0,164.492,544.4,21.622,21.622,0,0,0,154.79,550.222Z" transform="translate(-125.874 -451.632)" fill="#ea4d00"/>
    <path id="Caminho_300" data-name="Caminho 300" d="M164.5,544.41s-5.247,4.537-6.58,7.663-8.006,8.367-8.006,8.367" transform="translate(-125.874 -451.64)" fill="none" stroke="#535461" stroke-miterlimit="10" stroke-width="2"/>
  </g>
</svg>
