<svg xmlns="http://www.w3.org/2000/svg" width="193.745" height="104.699" viewBox="0 0 193.745 104.699">
  <g id="Grupo_42" data-name="Grupo 42" transform="translate(-50.715 -84.76)">
    <g id="Grupo_26" data-name="Grupo 26" transform="translate(158.819 84.76)">
      <path id="Caminho_92" data-name="Caminho 92" d="M206.986,174.239H193.005c-1.7,0-3.087-1.069-3.087-2.383V111.662c0-1.314,1.385-2.383,3.087-2.383h13.981c1.7,0,3.087,1.069,3.087,2.383v60.194c0,1.314-1.385,2.383-3.087,2.383h0Z" transform="translate(-158.269 -70.826)" fill="#ea4d00"/>
      <path id="Caminho_93" data-name="Caminho 93" d="M158.652,140.733a2.269,2.269,0,0,0-2.494,1.925v31.1a2.269,2.269,0,0,0,2.494,1.925h13.981a2.269,2.269,0,0,0,2.494-1.925v-31.1a2.269,2.269,0,0,0-2.494-1.925Z" transform="translate(-156.158 -72.793)" fill="#ea4d00"/>
      <path id="Caminho_94" data-name="Caminho 94" d="M241.379,171.673H227.4c-1.7,0-3.087-1.069-3.087-2.383V70.643c0-1.314,1.385-2.383,3.087-2.383h13.981c1.7,0,3.087,1.069,3.087,2.383V169.29c0,1.314-1.385,2.383-3.087,2.383h0Z" transform="translate(-160.42 -68.26)" fill="#ea4d00"/>
    </g>
    <g id="Grupo_27" data-name="Grupo 27" transform="translate(50.715 187.228)">
      <path id="Caminho_100" data-name="Caminho 100" d="M40.843,178.679a1.112,1.112,0,0,0,1.116,1.116H233.472a1.116,1.116,0,0,0,0-2.231H41.958A1.112,1.112,0,0,0,40.843,178.679Z" transform="translate(-40.843 -177.564)" fill="#3f3d56"/>
    </g>
  </g>
</svg>
