<svg id="undraw_yoga_re_i5ld" xmlns="http://www.w3.org/2000/svg" width="65.986" height="133.199" viewBox="0 0 65.986 133.199">
  <g id="Grupo_59" data-name="Grupo 59" transform="translate(30.081 118.77)">
    <path id="Caminho_441" data-name="Caminho 441" d="M143.163,490.029h-3.581l1.154,9.359h2.426Z" transform="translate(-135.832 -490.029)" fill="#a0616a"/>
    <path id="Caminho_442" data-name="Caminho 442" d="M128.207,524.4c-.484.515-4.282,2.461-4.09,3.362a1.032,1.032,0,0,0,1.026,1.028h4.568l.142-.293.646-1.333.25,1.333.055.293h1.723l-.025-.3-.459-5.509-.6-.037-2.6-.154-.638-.039V524.4Z" transform="translate(-124.11 -514.825)" fill="#2f2e41"/>
  </g>
  <g id="Grupo_60" data-name="Grupo 60" transform="translate(19.93 94.905)">
    <path id="Caminho_443" data-name="Caminho 443" d="M84.534,391.567l-2.306,2.74,7.9,5.142,1.562-1.857Z" transform="translate(-82.228 -391.567)" fill="#a0616a"/>
    <path id="Caminho_444" data-name="Caminho 444" d="M109.451,415.2c.082.7-.874,4.861-.061,5.294a1.032,1.032,0,0,0,1.446-.123l2.941-3.495-.133-.3-.6-1.353,1.181.667.26.146,1.109-1.318-.242-.171-4.511-3.2-.415.436-1.789,1.888-.44.463,1.259,1.059h0Z" transform="translate(-101.899 -406.555)" fill="#2f2e41"/>
  </g>
  <path id="Caminho_445" data-name="Caminho 445" d="M92.847,168.284l-16.312-6.951c3.524-4.513,1.972-11.72,2.012-19.225l16.481.485c-.286,5.829-1.792,11.82,2.775,18.74l1.345,3.8-6.3,3.151h0Z" transform="translate(-57.986 -107.665)" fill="#a0616a"/>
  <path id="Caminho_446" data-name="Caminho 446" d="M76.535,221.427l.073,11.314L88.2,240.72l2.95,46.071,4.847.242,1.7-14.058,4.97-27.428s-.365-1.657.3-1.629-.418-1.725.314-1.733c.229,0,.409-.524.548-1.239a11.873,11.873,0,0,0-.729-6.832L97.8,221.427c-6.923,3.466-14.029,3.122-21.268,0h0Z" transform="translate(-57.985 -167.759)" fill="#025471"/>
  <path id="Caminho_447" data-name="Caminho 447" d="M22.405,258.814l9.458,8.763s-10.332,4.4-9.389,5.029-1.189.422-1.189.422l-6.445,4.915-3.7,1.807L24.4,291.084l-5.2,4.328L3.642,283.523A5.859,5.859,0,0,1,0,278.1H0a6.256,6.256,0,0,1,2.975-5.342l15.647-11.691,3.783-2.252h0Z" transform="translate(0 -196.084)" fill="#025471"/>
  <path id="Caminho_448" data-name="Caminho 448" d="M71.026,110.918c-.779-.185-.191-.3-.039-.321s.09-.706-.057-.468S69.561,98.8,69.561,98.8c-.9-2.322-3.61-6.927-1.392-8.056l7.756-3.636,7.271.242L90.952,90.5c1.392,1.377-.032,4.968-.8,7.254l-.7,4.907s-1.412,5.774-.875,6.13-.069.481-.069.481-.953-.353-.1.673c-.785,1.375,1.709,9.581,2.614,9.389-4.623,4.636-13.921,3.152-20.844-1.454C70.186,117.882,71.8,111.1,71.026,110.918Z" transform="translate(-51 -65.995)" fill="#ea4d00"/>
  <g id="Grupo_61" data-name="Grupo 61" transform="translate(30.388 25.674)">
    <path id="Caminho_449" data-name="Caminho 449" d="M152.585,118.243l-10.843,1.023.124,3.811,13.7-1.276a2.83,2.83,0,0,0,2.524-3.317c-.589-3.276-6.473-10.632-7.459-12.12-1.514-2.286-3.568,5.177-3.568,5.177l5.524,6.7Z" transform="translate(-137.775 -105.929)" fill="#a0616a"/>
    <circle id="Elipse_43" data-name="Elipse 43" cx="2.666" cy="2.666" r="2.666" transform="translate(0 12.205)" fill="#a0616a"/>
  </g>
  <g id="Grupo_62" data-name="Grupo 62" transform="translate(1.985 9.804)">
    <path id="Caminho_450" data-name="Caminho 450" d="M26.135,59.1h0s.052,6.031-2.386,4.775c-1.586-.817-12.8-3.258-14.916-5.83a2.83,2.83,0,0,1,.584-4.127l11.333-7.8,1.968,3.266-8.964,6.185L26.135,59.1h0Z" transform="translate(-8.19 -44.742)" fill="#a0616a"/>
    <circle id="Elipse_44" data-name="Elipse 44" cx="2.666" cy="2.666" r="2.666" transform="translate(12.248)" fill="#a0616a"/>
  </g>
  <path id="Caminho_451" data-name="Caminho 451" d="M42.9,87.108l10.177,2.943-2.145,6.565a2.825,2.825,0,0,1-3.242-.947l-5.529-2.308.739-6.253Z" transform="translate(-31.943 -65.995)" fill="#ea4d00"/>
  <path id="Caminho_452" data-name="Caminho 452" d="M149.449,99.252l1.794.177a2.825,2.825,0,0,1,3.241.947l5.435,6.951-7.1,2.8-5.443-6.748,2.07-4.124Z" transform="translate(-111.658 -75.196)" fill="#ea4d00"/>
  <path id="Caminho_453" data-name="Caminho 453" d="M27.9,468.268h0a7.269,7.269,0,0,1,.213,1.852h0c-.164.2-.33.405-.495.609a.266.266,0,0,1-.02.023c-.324.4-.648.8-.972,1.2a4.965,4.965,0,0,0,1.209.072c-.014.049-.028.1-.044.147H23.425A18.2,18.2,0,0,1,22.2,468.6h0c-2.577.882-4.987.595-5.548-2.434a7.43,7.43,0,0,1-1.367-2.14l.031,0,.015,0a.746.746,0,0,0,.3-1.358q-.149-.1-.305-.187a5,5,0,0,0-.562-.271l-.005-.035a.856.856,0,0,1,1.312-.833c1.293.791,2.987,1.154,4.185,2.139a4.563,4.563,0,0,1,1.558,2.635l0,.033a17.268,17.268,0,0,1-.013-2.788,18.206,18.206,0,0,1,.98-4.612c-.061-.03-.121-.061-.182-.092-2.766-.057-4.7-1.321-3.806-4.79a7.423,7.423,0,0,1-.2-1.11l.015,0a.746.746,0,0,0,.3-1.358q-.149-.1-.305-.187l0-.039a1.522,1.522,0,0,1,2.711-.747,12.42,12.42,0,0,1,1.917,2.767,7.415,7.415,0,0,1,.443,3.444,17.837,17.837,0,0,1,1.862-2.949c.039-.05.08-.1.119-.149-.38-.609-.44-1.379-.874-1.947-.681-.894-.671-1.824.44-2.384.52-1.332,1.516-1.5,2.239-.523.145.2.384.3.517.5a4.44,4.44,0,0,0,.288,1.531,3.6,3.6,0,0,1-.327.983,4.716,4.716,0,0,1-1.962,2.035,17.722,17.722,0,0,0-3.514,7.511q-.155.759-.241,1.529a16.91,16.91,0,0,0-.1,1.886,17.519,17.519,0,0,0,1.594,7.276,4.37,4.37,0,0,1-.077-1.5,13.117,13.117,0,0,1,1.153-3.283,1.477,1.477,0,0,1,2.725-.01l.015.036-.038.15a.55.55,0,0,0,.4.953h0Z" transform="translate(-11.176 -339.453)" fill="#d0d4e0"/>
  <path id="Caminho_454" data-name="Caminho 454" d="M209.474,470.268h0a7.268,7.268,0,0,0-.213,1.852h0c.164.2.33.405.495.609a.278.278,0,0,0,.02.023c.324.4.648.8.972,1.2a4.962,4.962,0,0,1-1.209.072c.014.049.028.1.044.147h4.368a18.2,18.2,0,0,0,1.223-3.569h0c2.577.882,4.987.595,5.548-2.434a7.43,7.43,0,0,0,1.367-2.14l-.031,0-.015,0a.746.746,0,0,1-.3-1.358q.149-.1.305-.187a5.015,5.015,0,0,1,.562-.271l.005-.035a.856.856,0,0,0-1.312-.833c-1.293.792-2.987,1.154-4.185,2.139a4.563,4.563,0,0,0-1.558,2.635l0,.033a17.267,17.267,0,0,0,.013-2.788,18.2,18.2,0,0,0-.98-4.612c.061-.03.121-.061.182-.092,2.766-.057,4.7-1.321,3.806-4.79a7.424,7.424,0,0,0,.2-1.11l-.015,0a.746.746,0,0,1-.3-1.358q.149-.1.305-.187l0-.039a1.522,1.522,0,0,0-2.711-.747,12.42,12.42,0,0,0-1.917,2.767,7.415,7.415,0,0,0-.443,3.444,17.835,17.835,0,0,0-1.862-2.949c-.039-.05-.08-.1-.119-.149.38-.609.44-1.379.874-1.947.681-.894.671-1.824-.44-2.384-.52-1.332-1.516-1.5-2.239-.523-.145.2-.384.3-.517.5a4.439,4.439,0,0,1-.288,1.531,3.6,3.6,0,0,0,.327.983,4.717,4.717,0,0,0,1.962,2.035,17.722,17.722,0,0,1,3.514,7.511q.155.758.241,1.529a16.907,16.907,0,0,1,.1,1.886,17.519,17.519,0,0,1-1.594,7.276,4.37,4.37,0,0,0,.077-1.5,13.116,13.116,0,0,0-1.153-3.283,1.477,1.477,0,0,0-2.725-.01l-.015.036.038.15a.55.55,0,0,1-.4.953Z" transform="translate(-158.416 -340.968)" fill="#d0d4e0"/>
  <path id="Caminho_455" data-name="Caminho 455" d="M78.26,546.779H16.869a.288.288,0,0,0,0,.577H78.26a.288.288,0,0,0,0-.577Z" transform="translate(-12.562 -414.254)" fill="#ccc"/>
  <g id="Grupo_63" data-name="Grupo 63" transform="translate(20.939 0)">
    <path id="Caminho_456" data-name="Caminho 456" d="M95.022,31.44c-2.3-.85-6.959,2.023-6.556-.811.32-2.259-1.462,9.621-1.9,9.483-.776-.242,1.388-16.208.933-17.237-.058-.133-.126-.274-.207-.42s-.177-.321-.283-.494L87,21.948c-.367-4.026,3.569-7.335,8.56-6.921h0a10.713,10.713,0,0,1,1.557.245H99.6a6.963,6.963,0,0,1,.79.046,6.618,6.618,0,0,1,2.748.97,4.183,4.183,0,0,1,1.89,3.128,3.153,3.153,0,0,1-.831,2.531h-.008a8.626,8.626,0,0,1,.185,1.147,8.448,8.448,0,0,1,.041.853c0,.059,0,.12,0,.177a8.67,8.67,0,0,1-5.277,7.861l-.082.033a3.014,3.014,0,0,1-2.139.015,17.168,17.168,0,0,1-1.888-.6h0Z" transform="translate(-86.393 -11.359)" fill="#004158"/>
    <circle id="Elipse_45" data-name="Elipse 45" cx="5.87" cy="5.87" r="5.87" transform="translate(2.693 7.234)" fill="#a0616a"/>
    <path id="Caminho_457" data-name="Caminho 457" d="M100.662,25.88c0-.1,0-.2.01-.307.156-2.982,2.594-4.279,5.627-4.4.08,0,.16-.007.241-.007h2.178a1.036,1.036,0,0,1,.5-.881h0a1.03,1.03,0,0,1,.525-.144c.03,0,.063,0,.1,0a12.306,12.306,0,0,1,1.375.208c.22.046.44.1.655.158l.05.012a11.9,11.9,0,0,1,2.042.767,6.713,6.713,0,0,1,1.865,1.672A2.755,2.755,0,0,1,115,25.289H115a7.344,7.344,0,0,1,.185,1.055,7.145,7.145,0,0,1,.041.784c0,.054,0,.11,0,.163-.067,3.271-2.7,15.686-5.744,16.855.178-.787.8-11.028.893-11.316,1.4-4.387.364-5.615-1.649-6.952h-1.955a3.142,3.142,0,0,1-.518-1.955,5.436,5.436,0,0,0-.447,1.955c-.971,1.281-2.571,1.181-4.536.291-.1-.046-.205-.1-.307-.144s-.194-.1-.292-.147h0Z" transform="translate(-97.203 -15.259)" fill="#004158"/>
    <circle id="Elipse_46" data-name="Elipse 46" cx="3.867" cy="3.867" r="3.867" transform="translate(12.468 3.123)" fill="#004158"/>
    <path id="Caminho_458" data-name="Caminho 458" d="M134.215.52c1.653,1.353,4.17.755,4.681,2.829a3.867,3.867,0,0,1-2.829,4.681A3.822,3.822,0,0,1,131.386,5.2c-.593-2.819.491-6.6,2.829-4.681Z" transform="translate(-120.36 0)" fill="#004158"/>
  </g>
</svg>
