<svg xmlns="http://www.w3.org/2000/svg" width="126.525" height="138.543" viewBox="0 0 126.525 138.543">
  <g id="undraw_modern_professional_re_3b6l" transform="translate(0)">
    <circle id="Elipse_35" data-name="Elipse 35" cx="3.195" cy="3.195" r="3.195" transform="translate(22.294 106.486)" fill="#e5ad8a"/>
    <circle id="Elipse_36" data-name="Elipse 36" cx="2.241" cy="2.241" r="2.241" transform="translate(17.334 108.966)" fill="#e5ad8a"/>
    <circle id="Elipse_37" data-name="Elipse 37" cx="2.57" cy="2.57" r="2.57" transform="translate(21.612 8.138)" fill="#e5ad8a"/>
    <circle id="Elipse_38" data-name="Elipse 38" cx="2.57" cy="2.57" r="2.57" transform="translate(114.125 38.119)" fill="#e5ad8a"/>
    <rect id="Retângulo_283" data-name="Retângulo 283" width="4.283" height="4.283" transform="translate(23.967 59.32)" fill="#e5ad8a"/>
    <path id="Caminho_414" data-name="Caminho 414" d="M7.343,27.84H6.915V0H34.327V.428H7.343Z" transform="translate(-5.434)" fill="#e5ad8a"/>
    <path id="Caminho_415" data-name="Caminho 415" d="M490.231,27.84H489.8V.428H462.819V0h27.412Z" transform="translate(-363.705)" fill="#e5ad8a"/>
    <path id="Caminho_416" data-name="Caminho 416" d="M7.343,240H6.915v27.84H34.327v-.428H7.343Z" transform="translate(-5.434 -188.603)" fill="#e5ad8a"/>
    <path id="Caminho_417" data-name="Caminho 417" d="M490.231,240H489.8v27.412H462.819v.428h27.412Z" transform="translate(-363.705 -188.603)" fill="#e5ad8a"/>
    <rect id="Retângulo_284" data-name="Retângulo 284" width="29.981" height="0.428" transform="translate(9.191 13.063)" fill="#e5ad8a"/>
    <rect id="Retângulo_285" data-name="Retângulo 285" width="0.428" height="3.962" transform="translate(17.328 9.209)" fill="#e5ad8a"/>
    <rect id="Retângulo_286" data-name="Retângulo 286" width="0.428" height="3.962" transform="translate(30.392 9.209)" fill="#e5ad8a"/>
    <rect id="Retângulo_287" data-name="Retângulo 287" width="29.981" height="0.428" transform="translate(90.14 43.259)" fill="#e5ad8a"/>
    <rect id="Retângulo_288" data-name="Retângulo 288" width="0.428" height="3.962" transform="translate(98.278 39.404)" fill="#e5ad8a"/>
    <rect id="Retângulo_289" data-name="Retângulo 289" width="0.428" height="3.962" transform="translate(111.341 39.404)" fill="#e5ad8a"/>
    <rect id="Retângulo_290" data-name="Retângulo 290" width="29.981" height="0.428" transform="translate(11.118 63.389)" fill="#e5ad8a"/>
    <rect id="Retângulo_291" data-name="Retângulo 291" width="0.428" height="3.962" transform="translate(19.256 59.534)" fill="#e5ad8a"/>
    <rect id="Retângulo_292" data-name="Retângulo 292" width="0.428" height="3.962" transform="translate(32.319 59.534)" fill="#e5ad8a"/>
    <ellipse id="Elipse_39" data-name="Elipse 39" cx="11.993" cy="2.784" rx="11.993" ry="2.784" transform="translate(51.57 84.041)" fill="#ea4d00"/>
    <rect id="Retângulo_293" data-name="Retângulo 293" width="11.596" height="0.428" transform="translate(61.62 115.414) rotate(-4.229)" fill="#e5ad8a"/>
    <rect id="Retângulo_294" data-name="Retângulo 294" width="0.428" height="4.888" transform="matrix(0.482, -0.876, 0.876, 0.482, 53.823, 113.46)" fill="#e5ad8a"/>
    <rect id="Retângulo_295" data-name="Retângulo 295" width="3.855" height="0.428" transform="translate(62.277 111.56)" fill="#e5ad8a"/>
    <path id="Caminho_418" data-name="Caminho 418" d="M242.236,465.938l-.427-.029,3.212-49.041.427.029Z" transform="translate(-190.025 -327.595)" fill="#e5ad8a"/>
    <path id="Caminho_419" data-name="Caminho 419" d="M309.95,480.094l-2.142-45.186.428-.021,2.142,45.186Z" transform="translate(-241.89 -341.755)" fill="#e5ad8a"/>
    <rect id="Retângulo_296" data-name="Retângulo 296" width="0.428" height="49.423" transform="matrix(0.997, -0.082, 0.082, 0.997, 71.916, 89.091)" fill="#e5ad8a"/>
    <path id="Caminho_420" data-name="Caminho 420" d="M273.235,480.108l-.428-.01,1.285-45.186.428.01Z" transform="translate(-214.384 -341.774)" fill="#e5ad8a"/>
    <path id="Caminho_421" data-name="Caminho 421" d="M225.986,473.43l-2.844,1.685-7.852-10.169,4.2-2.487Z" transform="translate(-169.185 -363.422)" fill="#ffb6b6"/>
    <path id="Caminho_422" data-name="Caminho 422" d="M544.8,637.565,535.633,643l-.069-.116a4.149,4.149,0,0,1,1.455-5.684h0l5.6-3.318Z" transform="translate(-485.645 -525.23)" fill="#2f2e41"/>
    <path id="Caminho_423" data-name="Caminho 423" d="M329.378,473.43l2.844,1.685,7.852-10.169-4.2-2.487Z" transform="translate(-258.841 -363.422)" fill="#ffb6b6"/>
    <path id="Caminho_424" data-name="Caminho 424" d="M625.138,633.88l5.6,3.318h0a4.149,4.149,0,0,1,1.455,5.684l-.069.116-9.172-5.432Z" transform="translate(-554.776 -525.23)" fill="#2f2e41"/>
    <path id="Caminho_425" data-name="Caminho 425" d="M514.733,459.032s-9.28,6.536-18.314.638l-.141,4.112s-19.35,8.206-16.173,14.617,9.851,13.063,9.851,13.063l3.641-3-4.069-10.279L500.6,473.5l9.649.049L523.7,478.99l-6.425,9.637,5.661,1.764s13.492-12.421,10.6-15.954c-2.317-2.832-16.189-9.182-16.189-9.182Z" transform="translate(-442.241 -387.826)" fill="#025471"/>
    <path id="Caminho_426" data-name="Caminho 426" d="M562.02,326.949l-8.033-2.663L552,321.468H546.22l-1.713,2.862-7.448,2.618a1.713,1.713,0,0,0-1.218,1.937l3.312,27.275,5.354-.428s7.213,5.628,11.564-.857l.232-3.27,4.479,4.341,2.455-27.061a1.713,1.713,0,0,0-1.218-1.937Z" transform="translate(-486.298 -279.722)" fill="#ea4d00"/>
    <path id="Caminho_427" data-name="Caminho 427" d="M562.132,245.225a9.225,9.225,0,0,0-7.073-4.2s-4.578-.586-7.516,5.526c-2.738,5.7-6.516,9.269-.608,10.6L548,253.833l.661,3.568a23.113,23.113,0,0,0,2.528.043c6.326-.2,12.352.06,12.158-2.21C563.09,252.216,564.417,249.086,562.132,245.225Z" transform="translate(-492.577 -216.494)" fill="#2f2e41"/>
    <circle id="Elipse_40" data-name="Elipse 40" cx="6.21" cy="6.21" r="6.21" transform="translate(56.817 28.237)" fill="#ffb8b8"/>
    <path id="Caminho_428" data-name="Caminho 428" d="M275.462,122.43,270.82,120l-6.41.995-1.326,5.858,3.3-.127.922-2.152v2.117l1.523-.059.884-3.426.553,3.647,5.416-.111Z" transform="translate(-206.744 -94.301)" fill="#2f2e41"/>
    <path id="Caminho_429" data-name="Caminho 429" d="M553.58,374.532l4.818,18.844S556.15,376.888,553.58,374.532Z" transform="translate(-500.258 -321.422)" opacity="0.2"/>
    <path id="Caminho_430" data-name="Caminho 430" d="M620.716,394.376l4.818-18.844C622.965,377.888,620.716,394.376,620.716,394.376Z" transform="translate(-553.017 -322.208)" opacity="0.2"/>
    <path id="Caminho_431" data-name="Caminho 431" d="M615.044,479.187a2.008,2.008,0,0,0,.646-3.011l4.374-11.964-3.349-1.7-3.97,13.393a2.019,2.019,0,0,0,2.3,3.286Z" transform="translate(-546.222 -390.558)" fill="#ffb6b6"/>
    <path id="Caminho_432" data-name="Caminho 432" d="M627.712,369.035l-4.88,21.223a.857.857,0,0,0,.641,1.014l4.7.677a.857.857,0,0,0,1.044-.712l1.43-22.109Z" transform="translate(-554.664 -317.102)" fill="#ea4d00"/>
    <path id="Caminho_433" data-name="Caminho 433" d="M555.418,481.187a2.008,2.008,0,0,1-.646-3.011L550.4,466.213l3.348-1.7,3.97,13.394a2.019,2.019,0,0,1-2.3,3.286Z" transform="translate(-497.757 -392.13)" fill="#ffb6b6"/>
    <path id="Caminho_434" data-name="Caminho 434" d="M541.761,371.035l4.88,21.223a.857.857,0,0,1-.641,1.014l-4.7.677a.856.856,0,0,1-1.044-.712L538.4,371.128Z" transform="translate(-488.327 -318.674)" fill="#ea4d00"/>
    <path id="Caminho_435" data-name="Caminho 435" d="M429.656,771.9H304.805a.214.214,0,0,1,0-.428H429.656a.214.214,0,1,1,0,.428Z" transform="translate(-304.591 -633.353)" fill="#e5ad8a"/>
    <path id="Caminho_436" data-name="Caminho 436" d="M806.2,668.474l.16-.228c2.749,1.93,4.754,6.223,5.96,12.76a64.674,64.674,0,0,1,.99,9.243l-.279.005C813.029,690.082,812.623,672.982,806.2,668.474Z" transform="translate(-698.779 -552.236)" fill="#e5ad8a"/>
    <path id="Caminho_437" data-name="Caminho 437" d="M808.155,726.084l.16-.228c2.865,2.012,3.04,9.29,3.046,9.6l-.279.005C811.081,735.386,810.9,728.014,808.155,726.084Z" transform="translate(-700.315 -597.509)" fill="#e5ad8a"/>
    <circle id="Elipse_41" data-name="Elipse 41" cx="1.394" cy="1.394" r="1.394" transform="translate(104.434 113.335)" fill="#e5ad8a"/>
    <circle id="Elipse_42" data-name="Elipse 42" cx="1.394" cy="1.394" r="1.394" transform="translate(105.131 125.466)" fill="#e5ad8a"/>
    <path id="Caminho_438" data-name="Caminho 438" d="M825.978,659.835a5.645,5.645,0,0,1-.949,6.061A5.644,5.644,0,0,1,825.978,659.835Z" transform="translate(-713.191 -545.627)" fill="#e5ad8a"/>
    <path id="Caminho_439" data-name="Caminho 439" d="M791.4,683.049a5.644,5.644,0,0,1,5.8,1.991A5.645,5.645,0,0,1,791.4,683.049Z" transform="translate(-687.147 -563.738)" fill="#e5ad8a"/>
    <path id="Caminho_440" data-name="Caminho 440" d="M794.8,735.411a3.956,3.956,0,0,1,4.068,1.4A3.956,3.956,0,0,1,794.8,735.411Z" transform="translate(-689.819 -604.926)" fill="#e5ad8a"/>
  </g>
</svg>
